Printer.ufo
<glyph name="uni000D" format="2">
  <advance width="902"/>
  <unicode hex="000D"/>
  <outline>
    <contour>
      <point x="524" y="-187" type="line"/>
      <point x="375" y="-287" type="line"/>
      <point x="375" y="-78" type="line"/>
      <point x="524" y="-78" type="line"/>
    </contour>
    <contour>
      <point x="543" y="-196" type="line"/>
      <point x="543" y="-59" type="line"/>
      <point x="356" y="-59" type="line"/>
      <point x="356" y="-324" type="line"/>
    </contour>
    <contour>
      <point x="573" y="-222" type="line"/>
      <point x="326" y="-385" type="line"/>
      <point x="326" y="-29" type="line"/>
      <point x="573" y="-29" type="line"/>
    </contour>
  </outline>
</glyph>
<glyph name="percent" format="2">
  <advance width="1097"/>
  <unicode hex="0025"/>
  <outline>
    <contour>
      <point x="579" y="695" type="line"/>
      <point x="779" y="695" type="line"/>
      <point x="513" y="0" type="line"/>
      <point x="313" y="0" type="line"/>
    </contour>
    <contour>
      <point x="598" y="665" type="line"/>
      <point x="357" y="26" type="line"/>
      <point x="497" y="26" type="line"/>
      <point x="738" y="665" type="line"/>
    </contour>
    <contour>
      <point x="609" y="646" type="line"/>
      <point x="711" y="646" type="line"/>
      <point x="485" y="45" type="line"/>
      <point x="383" y="45" type="line"/>
    </contour>
    <contour>
      <point x="173" y="354" type="line"/>
      <point x="258" y="354" type="line"/>
      <point x="258" y="572" type="line"/>
      <point x="173" y="572" type="line"/>
    </contour>
    <contour>
      <point x="206" y="539" type="line"/>
      <point x="225" y="539" type="line"/>
      <point x="225" y="387" type="line"/>
      <point x="206" y="387" type="line"/>
    </contour>
    <contour>
      <point x="373" y="659" type="qcurve" smooth="yes"/>
      <point x="337" y="695"/>
      <point x="285" y="695" type="qcurve" smooth="yes"/>
      <point x="152" y="695" type="line" smooth="yes"/>
      <point x="126" y="695"/>
      <point x="82" y="676"/>
      <point x="48" y="642"/>
      <point x="29" y="597"/>
      <point x="29" y="572" type="qcurve" smooth="yes"/>
      <point x="29" y="346" type="line" smooth="yes"/>
      <point x="29" y="321"/>
      <point x="48" y="276"/>
      <point x="82" y="243"/>
      <point x="126" y="224"/>
      <point x="152" y="224" type="qcurve" smooth="yes"/>
      <point x="285" y="224" type="line" smooth="yes"/>
      <point x="310" y="224"/>
      <point x="356" y="243"/>
      <point x="389" y="276"/>
      <point x="409" y="321"/>
      <point x="409" y="346" type="qcurve" smooth="yes"/>
      <point x="409" y="572" type="line" smooth="yes"/>
      <point x="409" y="623"/>
    </contour>
    <contour>
      <point x="376" y="346" type="line" smooth="yes"/>
      <point x="376" y="328"/>
      <point x="362" y="295"/>
      <point x="337" y="271"/>
      <point x="304" y="257"/>
      <point x="285" y="257" type="qcurve" smooth="yes"/>
      <point x="152" y="257" type="line" smooth="yes"/>
      <point x="114" y="257"/>
      <point x="62" y="309"/>
      <point x="62" y="346" type="qcurve" smooth="yes"/>
      <point x="62" y="572" type="line" smooth="yes"/>
      <point x="62" y="610"/>
      <point x="114" y="663"/>
      <point x="152" y="663" type="qcurve" smooth="yes"/>
      <point x="285" y="663" type="line" smooth="yes"/>
      <point x="304" y="663"/>
      <point x="337" y="649"/>
      <point x="362" y="624"/>
      <point x="376" y="591"/>
      <point x="376" y="572" type="qcurve" smooth="yes"/>
    </contour>
    <contour>
      <point x="151" y="278" type="line" smooth="yes"/>
      <point x="121" y="278"/>
      <point x="101" y="298" type="qcurve" smooth="yes"/>
      <point x="90" y="308"/>
      <point x="80" y="333"/>
      <point x="80" y="347" type="qcurve" smooth="yes"/>
      <point x="80" y="573" type="line" smooth="yes"/>
      <point x="80" y="602"/>
      <point x="122" y="643"/>
      <point x="151" y="643" type="qcurve" smooth="yes"/>
      <point x="284" y="643" type="line" smooth="yes"/>
      <point x="313" y="643"/>
      <point x="355" y="602"/>
      <point x="355" y="573" type="qcurve" smooth="yes"/>
      <point x="355" y="347" type="line" smooth="yes"/>
      <point x="355" y="318"/>
      <point x="313" y="278"/>
      <point x="284" y="278" type="qcurve" smooth="yes"/>
    </contour>
    <contour>
      <point x="152" y="334" type="line"/>
      <point x="277" y="334" type="line"/>
      <point x="277" y="592" type="line"/>
      <point x="152" y="592" type="line"/>
    </contour>
    <contour>
      <point x="828" y="130" type="line"/>
      <point x="913" y="130" type="line"/>
      <point x="913" y="348" type="line"/>
      <point x="828" y="348" type="line"/>
    </contour>
    <contour>
      <point x="861" y="315" type="line"/>
      <point x="880" y="315" type="line"/>
      <point x="880" y="163" type="line"/>
      <point x="861" y="163" type="line"/>
    </contour>
    <contour>
      <point x="1028" y="435" type="qcurve" smooth="yes"/>
      <point x="992" y="471"/>
      <point x="940" y="471" type="qcurve" smooth="yes"/>
      <point x="807" y="471" type="line" smooth="yes"/>
      <point x="781" y="471"/>
      <point x="737" y="452"/>
      <point x="703" y="418"/>
      <point x="684" y="373"/>
      <point x="684" y="348" type="qcurve" smooth="yes"/>
      <point x="684" y="122" type="line" smooth="yes"/>
      <point x="684" y="97"/>
      <point x="703" y="52"/>
      <point x="737" y="19"/>
      <point x="781" y="0"/>
      <point x="807" y="0" type="qcurve" smooth="yes"/>
      <point x="940" y="0" type="line" smooth="yes"/>
      <point x="965" y="0"/>
      <point x="1011" y="19"/>
      <point x="1044" y="52"/>
      <point x="1064" y="97"/>
      <point x="1064" y="122" type="qcurve" smooth="yes"/>
      <point x="1064" y="348" type="line" smooth="yes"/>
      <point x="1064" y="399"/>
    </contour>
    <contour>
      <point x="1031" y="122" type="line" smooth="yes"/>
      <point x="1031" y="104"/>
      <point x="1017" y="71"/>
      <point x="992" y="47"/>
      <point x="959" y="33"/>
      <point x="940" y="33" type="qcurve" smooth="yes"/>
      <point x="807" y="33" type="line" smooth="yes"/>
      <point x="769" y="33"/>
      <point x="717" y="85"/>
      <point x="717" y="122" type="qcurve" smooth="yes"/>
      <point x="717" y="348" type="line" smooth="yes"/>
      <point x="717" y="386"/>
      <point x="769" y="439"/>
      <point x="807" y="439" type="qcurve" smooth="yes"/>
      <point x="940" y="439" type="line" smooth="yes"/>
      <point x="959" y="439"/>
      <point x="992" y="425"/>
      <point x="1017" y="400"/>
      <point x="1031" y="367"/>
      <point x="1031" y="348" type="qcurve" smooth="yes"/>
    </contour>
    <contour>
      <point x="806" y="54" type="line" smooth="yes"/>
      <point x="776" y="54"/>
      <point x="756" y="74" type="qcurve" smooth="yes"/>
      <point x="745" y="84"/>
      <point x="735" y="109"/>
      <point x="735" y="123" type="qcurve" smooth="yes"/>
      <point x="735" y="349" type="line" smooth="yes"/>
      <point x="735" y="378"/>
      <point x="777" y="419"/>
      <point x="806" y="419" type="qcurve" smooth="yes"/>
      <point x="939" y="419" type="line" smooth="yes"/>
      <point x="968" y="419"/>
      <point x="1010" y="378"/>
      <point x="1010" y="349" type="qcurve" smooth="yes"/>
      <point x="1010" y="123" type="line" smooth="yes"/>
      <point x="1010" y="94"/>
      <point x="968" y="54"/>
      <point x="939" y="54" type="qcurve" smooth="yes"/>
    </contour>
    <contour>
      <point x="807" y="110" type="line"/>
      <point x="932" y="110" type="line"/>
      <point x="932" y="368" type="line"/>
      <point x="807" y="368" type="line"/>
    </contour>
  </outline>
</glyph>
<glyph name="parenright" format="2">
  <advance width="517"/>
  <unicode hex="0029"/>
  <outline>
    <contour>
      <point x="89" y="-249" type="line"/>
      <point x="89" y="-87" type="line"/>
      <point x="186" y="-87" type="line"/>
      <point x="186" y="-116" type="line"/>
      <point x="187" y="-150"/>
      <point x="225" y="-223"/>
      <point x="262" y="-249" type="qcurve"/>
    </contour>
    <contour>
      <point x="262" y="945" type="line"/>
      <point x="225" y="919"/>
      <point x="187" y="846"/>
      <point x="186" y="812" type="qcurve"/>
      <point x="186" y="783" type="line"/>
      <point x="89" y="783" type="line"/>
      <point x="89" y="945" type="line"/>
    </contour>
    <contour>
      <point x="313" y="-268" type="line"/>
      <point x="276" y="-243"/>
      <point x="220" y="-185"/>
      <point x="205" y="-116" type="qcurve"/>
      <point x="205" y="-68" type="line"/>
      <point x="70" y="-68" type="line"/>
      <point x="70" y="-268" type="line"/>
    </contour>
    <contour>
      <point x="70" y="964" type="line"/>
      <point x="70" y="764" type="line"/>
      <point x="205" y="764" type="line"/>
      <point x="205" y="812" type="line"/>
      <point x="220" y="881"/>
      <point x="276" y="939"/>
      <point x="313" y="964" type="qcurve"/>
    </contour>
    <contour>
      <point x="248" y="773" type="line" smooth="yes"/>
      <point x="248" y="809"/>
      <point x="275" y="872"/>
      <point x="323" y="919"/>
      <point x="386" y="946"/>
      <point x="422" y="946" type="qcurve" smooth="yes"/>
      <point x="458" y="946"/>
      <point x="521" y="919"/>
      <point x="569" y="872"/>
      <point x="596" y="809"/>
      <point x="596" y="773" type="qcurve" smooth="yes"/>
      <point x="596" y="-77" type="line" smooth="yes"/>
      <point x="596" y="-113"/>
      <point x="569" y="-176"/>
      <point x="521" y="-223"/>
      <point x="458" y="-250"/>
      <point x="422" y="-250" type="qcurve" smooth="yes"/>
      <point x="386" y="-250"/>
      <point x="323" y="-223"/>
      <point x="275" y="-176"/>
      <point x="248" y="-113"/>
      <point x="248" y="-77" type="qcurve" smooth="yes"/>
    </contour>
    <contour>
      <point x="229" y="-77" type="line" smooth="yes"/>
      <point x="229" y="-117"/>
      <point x="260" y="-187"/>
      <point x="312" y="-239"/>
      <point x="382" y="-269"/>
      <point x="422" y="-269" type="qcurve" smooth="yes"/>
      <point x="462" y="-269"/>
      <point x="532" y="-239"/>
      <point x="585" y="-187"/>
      <point x="615" y="-117"/>
      <point x="615" y="-77" type="qcurve" smooth="yes"/>
      <point x="615" y="773" type="line" smooth="yes"/>
      <point x="615" y="813"/>
      <point x="585" y="883"/>
      <point x="532" y="935"/>
      <point x="462" y="965"/>
      <point x="422" y="965" type="qcurve" smooth="yes"/>
      <point x="382" y="965"/>
      <point x="312" y="935"/>
      <point x="260" y="883"/>
      <point x="229" y="813"/>
      <point x="229" y="773" type="qcurve" smooth="yes"/>
    </contour>
    <contour>
      <point x="645" y="-92" type="line"/>
      <point x="644" y="-92" type="line"/>
      <point x="640" y="-149"/>
      <point x="607" y="-210" type="qcurve"/>
      <point x="538" y="-307"/>
      <point x="407" y="-299" type="qcurve"/>
      <point x="38" y="-297" type="line"/>
      <point x="38" y="-38" type="line"/>
      <point x="199" y="-37" type="line"/>
      <point x="199" y="733" type="line"/>
      <point x="38" y="734" type="line"/>
      <point x="38" y="993" type="line"/>
      <point x="407" y="995" type="line"/>
      <point x="538" y="1003"/>
      <point x="607" y="906" type="qcurve"/>
      <point x="640" y="845"/>
      <point x="644" y="788" type="qcurve"/>
      <point x="645" y="788" type="line"/>
    </contour>
  </outline>
</glyph>
<glyph name="asterisk" format="2">
  <advance width="601"/>
  <unicode hex="002A"/>
  <outline>
    <contour>
      <point x="582" y="274" type="line"/>
      <point x="442" y="387" type="line"/>
      <point x="572" y="505" type="line"/>
      <point x="463" y="626" type="line"/>
      <point x="378" y="549" type="line"/>
      <point x="378" y="655" type="line"/>
      <point x="215" y="655" type="line"/>
      <point x="215" y="543" type="line"/>
      <point x="127" y="614" type="line"/>
      <point x="25" y="487" type="line"/>
      <point x="165" y="374" type="line"/>
      <point x="35" y="256" type="line"/>
      <point x="144" y="135" type="line"/>
      <point x="218" y="212" type="line"/>
      <point x="218" y="105" type="line"/>
      <point x="381" y="105" type="line"/>
      <point x="381" y="218" type="line"/>
      <point x="480" y="147" type="line"/>
    </contour>
    <contour>
      <point x="77" y="2088" type="line"/>
      <point x="240" y="2088" type="line"/>
      <point x="240" y="1881" type="line"/>
      <point x="451" y="1712" type="line"/>
      <point x="349" y="1585" type="line"/>
      <point x="178" y="1722" type="line"/>
      <point x="10" y="1569" type="line"/>
      <point x="-99" y="1690" type="line"/>
      <point x="77" y="1850" type="line"/>
    </contour>
    <contour>
      <point x="267" y="154" type="line"/>
      <point x="329" y="154" type="line"/>
      <point x="329" y="606" type="line"/>
      <point x="267" y="606" type="line"/>
    </contour>
    <contour>
      <point x="96" y="496" type="line"/>
      <point x="235" y="373" type="line"/>
      <point x="104" y="252" type="line"/>
      <point x="146" y="206" type="line"/>
      <point x="247" y="302" type="line"/>
      <point x="247" y="455" type="line"/>
      <point x="135" y="545" type="line"/>
    </contour>
    <contour>
      <point x="341" y="1654" type="line"/>
      <point x="215" y="1755" type="line"/>
      <point x="200" y="1742" type="line"/>
      <point x="344" y="1627" type="line"/>
      <point x="407" y="1705" type="line"/>
      <point x="240" y="1839" type="line"/>
      <point x="240" y="1815" type="line"/>
      <point x="380" y="1702" type="line"/>
    </contour>
    <contour>
      <point x="-30" y="1687" type="line"/>
      <point x="77" y="1784" type="line"/>
      <point x="77" y="1809" type="line"/>
      <point x="-57" y="1688" type="line"/>
      <point x="10" y="1614" type="line"/>
      <point x="152" y="1743" type="line"/>
      <point x="137" y="1754" type="line"/>
      <point x="12" y="1641" type="line"/>
    </contour>
    <contour>
      <point x="191" y="2039" type="line"/>
      <point x="191" y="1873" type="line"/>
      <point x="210" y="1897" type="line"/>
      <point x="210" y="2058" type="line"/>
      <point x="110" y="2058" type="line"/>
      <point x="110" y="1880" type="line"/>
      <point x="126" y="1895" type="line"/>
      <point x="129" y="1891" type="line"/>
      <point x="129" y="2039" type="line"/>
    </contour>
    <contour>
      <point x="110" y="1839" type="line"/>
      <point x="110" y="1814" type="line"/>
      <point x="122" y="1825" type="line"/>
      <point x="132" y="1814" type="line"/>
      <point x="143" y="1814" type="line"/>
      <point x="150" y="1823" type="line"/>
      <point x="141" y="1833" type="line"/>
      <point x="129" y="1833" type="line"/>
      <point x="129" y="1846" type="line"/>
      <point x="124" y="1852" type="line"/>
    </contour>
    <contour>
      <point x="206" y="1814" type="line"/>
      <point x="210" y="1819" type="line"/>
      <point x="210" y="1849" type="line"/>
      <point x="190" y="1824" type="line"/>
      <point x="199" y="1814" type="line"/>
    </contour>
    <contour>
      <point x="164" y="1779" type="line"/>
      <point x="160" y="1775" type="line"/>
      <point x="174" y="1763" type="line"/>
      <point x="189" y="1776" type="line"/>
      <point x="181" y="1783" type="line"/>
      <point x="182" y="1784" type="line"/>
      <point x="159" y="1784" type="line"/>
    </contour>
    <contour>
      <point x="348" y="135" type="line"/>
      <point x="248" y="135" type="line"/>
      <point x="248" y="281" type="line"/>
      <point x="144" y="180" type="line"/>
      <point x="77" y="254" type="line"/>
      <point x="208" y="372" type="line"/>
      <point x="69" y="494" type="line"/>
      <point x="132" y="572" type="line"/>
      <point x="248" y="480" type="line"/>
      <point x="248" y="625" type="line"/>
      <point x="348" y="625" type="line"/>
      <point x="348" y="480" type="line"/>
      <point x="463" y="581" type="line"/>
      <point x="530" y="507" type="line"/>
      <point x="402" y="381" type="line"/>
      <point x="538" y="267" type="line"/>
      <point x="475" y="189" type="line"/>
      <point x="348" y="285" type="line"/>
    </contour>
    <contour>
      <point x="472" y="216" type="line"/>
      <point x="511" y="264" type="line"/>
      <point x="372" y="379" type="line"/>
      <point x="503" y="509" type="line"/>
      <point x="461" y="555" type="line"/>
      <point x="348" y="454" type="line"/>
      <point x="348" y="316" type="line"/>
    </contour>
  </outline>
</glyph>
<glyph name="comma" format="2">
  <advance width="322"/>
  <unicode hex="002C"/>
  <outline>
    <contour>
      <point x="308" y="100" type="qcurve" smooth="yes"/>
      <point x="309" y="71"/>
      <point x="298" y="34" type="qcurve"/>
      <point x="287" y="2"/>
      <point x="238" y="-89"/>
      <point x="187" y="-147" type="qcurve"/>
      <point x="43" y="-147" type="line"/>
      <point x="66" y="8" type="line"/>
      <point x="55" y="17"/>
      <point x="46" y="31" type="qcurve" smooth="yes"/>
      <point x="38" y="42"/>
      <point x="26" y="77"/>
      <point x="25" y="100" type="qcurve"/>
      <point x="25" y="102" type="line"/>
      <point x="25" y="125"/>
      <point x="40" y="172"/>
      <point x="60" y="190" type="qcurve"/>
      <point x="80" y="210"/>
      <point x="137" y="229"/>
      <point x="166" y="229" type="qcurve" smooth="yes"/>
      <point x="225" y="229"/>
      <point x="267" y="190" type="qcurve" smooth="yes"/>
      <point x="306" y="152"/>
    </contour>
    <contour>
      <point x="179" y="-123" type="line"/>
      <point x="208" y="-85"/>
      <point x="232" y="-46" type="qcurve" smooth="yes"/>
      <point x="252" y="-13"/>
      <point x="285" y="65"/>
      <point x="284" y="100" type="qcurve" smooth="yes"/>
      <point x="283" y="122"/>
      <point x="263" y="161"/>
      <point x="232" y="189"/>
      <point x="190" y="206"/>
      <point x="166" y="206" type="qcurve" smooth="yes"/>
      <point x="128" y="206"/>
      <point x="70" y="172"/>
      <point x="43" y="119"/>
      <point x="54" y="53"/>
      <point x="84" y="22" type="qcurve" smooth="yes"/>
      <point x="87" y="19"/>
      <point x="93" y="16" type="qcurve"/>
      <point x="71" y="-123" type="line"/>
    </contour>
    <contour>
      <point x="115" y="28" type="line"/>
      <point x="103" y="39" type="line"/>
      <point x="104" y="39" type="line"/>
      <point x="87" y="56"/>
      <point x="75" y="90"/>
      <point x="75" y="106" type="qcurve" smooth="yes"/>
      <point x="75" y="139"/>
      <point x="126" y="186"/>
      <point x="167" y="186" type="qcurve" smooth="yes"/>
      <point x="185" y="186"/>
      <point x="217" y="173"/>
      <point x="242" y="150"/>
      <point x="258" y="119"/>
      <point x="259" y="101" type="qcurve"/>
      <point x="259" y="75"/>
      <point x="236" y="11"/>
      <point x="205" y="-49"/>
      <point x="175" y="-96"/>
      <point x="168" y="-105" type="qcurve"/>
      <point x="95" y="-105" type="line"/>
    </contour>
  </outline>
</glyph>
<glyph name="hyphen" format="2">
  <advance width="580"/>
  <unicode hex="002D"/>
  <outline>
    <contour>
      <point x="26" y="422" type="line"/>
      <point x="558" y="422" type="line"/>
      <point x="558" y="261" type="line"/>
      <point x="26" y="261" type="line"/>
    </contour>
    <contour>
      <point x="528" y="291" type="line"/>
      <point x="528" y="389" type="line"/>
      <point x="56" y="389" type="line"/>
      <point x="56" y="291" type="line"/>
    </contour>
    <contour>
      <point x="509" y="310" type="line"/>
      <point x="75" y="310" type="line"/>
      <point x="75" y="370" type="line"/>
      <point x="509" y="370" type="line"/>
    </contour>
  </outline>
</glyph>
<glyph name="slash" format="2">
  <advance width="549"/>
  <unicode hex="002F"/>
  <outline>
    <contour>
      <point x="292" y="695" type="line"/>
      <point x="526" y="695" type="line"/>
      <point x="259" y="0" type="line"/>
      <point x="26" y="0" type="line"/>
    </contour>
    <contour>
      <point x="311" y="665" type="line"/>
      <point x="67" y="34" type="line"/>
      <point x="240" y="34" type="line"/>
      <point x="484" y="665" type="line"/>
    </contour>
    <contour>
      <point x="322" y="646" type="line"/>
      <point x="457" y="646" type="line"/>
      <point x="228" y="53" type="line"/>
      <point x="93" y="53" type="line"/>
    </contour>
  </outline>
</glyph>
<glyph name="two" format="2">
  <advance width="1163"/>
  <unicode hex="0032"/>
  <outline>
    <contour>
      <point x="971" y="695" type="line"/>
      <point x="1006" y="692"/>
      <point x="1067" y="661"/>
      <point x="1113" y="612"/>
      <point x="1139" y="549"/>
      <point x="1139" y="513" type="qcurve" smooth="yes"/>
      <point x="1139" y="477"/>
      <point x="1113" y="414"/>
      <point x="1068" y="366"/>
      <point x="1007" y="336"/>
      <point x="972" y="333" type="qcurve"/>
      <point x="972" y="196" type="line"/>
      <point x="1139" y="196" type="line"/>
      <point x="1139" y="0" type="line"/>
      <point x="28" y="0" type="line"/>
      <point x="28" y="181" type="line" smooth="yes"/>
      <point x="28" y="217"/>
      <point x="54" y="280"/>
      <point x="99" y="328"/>
      <point x="160" y="358"/>
      <point x="194" y="361" type="qcurve"/>
      <point x="194" y="498" type="line"/>
      <point x="28" y="498" type="line"/>
      <point x="28" y="695" type="line"/>
    </contour>
    <contour>
      <point x="58" y="665" type="line"/>
      <point x="58" y="528" type="line"/>
      <point x="224" y="528" type="line"/>
      <point x="224" y="331" type="line"/>
      <point x="216" y="332"/>
      <point x="178" y="332"/>
      <point x="123" y="308"/>
      <point x="82" y="267"/>
      <point x="58" y="212"/>
      <point x="58" y="181" type="qcurve" smooth="yes"/>
      <point x="58" y="30" type="line"/>
      <point x="1109" y="30" type="line"/>
      <point x="1109" y="166" type="line"/>
      <point x="943" y="166" type="line"/>
      <point x="943" y="333" type="line"/>
      <point x="912" y="336"/>
      <point x="856" y="361"/>
      <point x="813" y="401"/>
      <point x="784" y="454"/>
      <point x="779" y="484" type="qcurve"/>
      <point x="225" y="50" type="line"/>
      <point x="182" y="50" type="line"/>
      <point x="776" y="521" type="line"/>
      <point x="778" y="566"/>
      <point x="823" y="641"/>
      <point x="858" y="665" type="qcurve"/>
    </contour>
    <contour>
      <point x="77" y="181" type="line" smooth="yes"/>
      <point x="77" y="208"/>
      <point x="98" y="256"/>
      <point x="134" y="292"/>
      <point x="182" y="313"/>
      <point x="209" y="313" type="qcurve"/>
      <point x="243" y="312" type="line"/>
      <point x="243" y="547" type="line"/>
      <point x="77" y="547" type="line"/>
      <point x="77" y="646" type="line"/>
      <point x="806" y="646" type="line"/>
      <point x="786" y="623"/>
      <point x="759" y="563"/>
      <point x="757" y="531" type="qcurve"/>
      <point x="710" y="493"/>
      <point x="622" y="422"/>
      <point x="151" y="50" type="qcurve"/>
      <point x="77" y="50" type="line"/>
    </contour>
    <contour>
      <point x="720" y="413" type="line"/>
      <point x="768" y="451" type="line"/>
      <point x="785" y="398"/>
      <point x="868" y="325"/>
      <point x="924" y="316" type="qcurve"/>
      <point x="924" y="147" type="line"/>
      <point x="1090" y="147" type="line"/>
      <point x="1090" y="49" type="line"/>
      <point x="259" y="50" type="line"/>
    </contour>
    <contour>
      <point x="1109" y="513" type="qcurve" smooth="yes"/>
      <point x="1109" y="544"/>
      <point x="1085" y="600"/>
      <point x="1044" y="641"/>
      <point x="989" y="665"/>
      <point x="957" y="665" type="qcurve" smooth="yes"/>
      <point x="927" y="665"/>
      <point x="873" y="641"/>
      <point x="832" y="599"/>
      <point x="807" y="541"/>
      <point x="806" y="506" type="qcurve"/>
      <point x="808" y="476"/>
      <point x="832" y="423"/>
      <point x="873" y="384"/>
      <point x="927" y="362"/>
      <point x="957" y="362" type="qcurve" smooth="yes"/>
      <point x="989" y="362"/>
      <point x="1044" y="386"/>
      <point x="1085" y="427"/>
      <point x="1109" y="482"/>
    </contour>
    <contour>
      <point x="1090" y="513" type="qcurve" smooth="yes"/>
      <point x="1090" y="486"/>
      <point x="1069" y="438"/>
      <point x="1033" y="402"/>
      <point x="985" y="381"/>
      <point x="957" y="381" type="qcurve" smooth="yes"/>
      <point x="931" y="381"/>
      <point x="884" y="400"/>
      <point x="848" y="434"/>
      <point x="827" y="480"/>
      <point x="825" y="506" type="qcurve"/>
      <point x="827" y="536"/>
      <point x="849" y="588"/>
      <point x="885" y="625"/>
      <point x="931" y="646"/>
      <point x="957" y="646" type="qcurve" smooth="yes"/>
      <point x="985" y="646"/>
      <point x="1033" y="625"/>
      <point x="1069" y="589"/>
      <point x="1090" y="540"/>
    </contour>
  </outline>
</glyph>
<glyph name="equal" format="2">
  <advance width="555"/>
  <unicode hex="003D"/>
  <outline>
    <contour>
      <point x="26" y="323" type="line"/>
      <point x="529" y="323" type="line"/>
      <point x="529" y="154" type="line"/>
      <point x="26" y="154" type="line"/>
    </contour>
    <contour>
      <point x="499" y="184" type="line"/>
      <point x="499" y="290" type="line"/>
      <point x="56" y="290" type="line"/>
      <point x="56" y="184" type="line"/>
    </contour>
    <contour>
      <point x="480" y="203" type="line"/>
      <point x="75" y="203" type="line"/>
      <point x="75" y="271" type="line"/>
      <point x="480" y="271" type="line"/>
    </contour>
    <contour>
      <point x="26" y="532" type="line"/>
      <point x="529" y="532" type="line"/>
      <point x="529" y="363" type="line"/>
      <point x="26" y="363" type="line"/>
    </contour>
    <contour>
      <point x="499" y="393" type="line"/>
      <point x="499" y="499" type="line"/>
      <point x="56" y="499" type="line"/>
      <point x="56" y="393" type="line"/>
    </contour>
    <contour>
      <point x="480" y="412" type="line"/>
      <point x="75" y="412" type="line"/>
      <point x="75" y="480" type="line"/>
      <point x="480" y="480" type="line"/>
    </contour>
  </outline>
</glyph>
<glyph name="W" format="2">
  <advance width="1799"/>
  <unicode hex="0057"/>
  <outline>
    <contour>
      <point x="1620" y="0" type="line"/>
      <point x="185" y="0" type="line"/>
      <point x="-11" y="695" type="line"/>
      <point x="395" y="695" type="line"/>
      <point x="535" y="196" type="line"/>
      <point x="564" y="196" type="line"/>
      <point x="701" y="695" type="line"/>
      <point x="704" y="695" type="line"/>
      <point x="1105" y="696" type="line"/>
      <point x="1241" y="196" type="line"/>
      <point x="1271" y="196" type="line"/>
      <point x="1411" y="695" type="line"/>
      <point x="1816" y="695" type="line"/>
    </contour>
    <contour>
      <point x="1302" y="196" type="line"/>
      <point x="1645" y="196" type="line"/>
      <point x="1776" y="665" type="line"/>
      <point x="1433" y="665" type="line"/>
    </contour>
    <contour>
      <point x="918" y="665" type="line"/>
      <point x="918" y="196" type="line"/>
      <point x="1210" y="196" type="line"/>
      <point x="1078" y="665" type="line"/>
    </contour>
    <contour>
      <point x="595" y="196" type="line"/>
      <point x="888" y="196" type="line"/>
      <point x="888" y="665" type="line"/>
      <point x="727" y="665" type="line"/>
    </contour>
    <contour>
      <point x="29" y="665" type="line"/>
      <point x="161" y="196" type="line"/>
      <point x="504" y="196" type="line"/>
      <point x="372" y="665" type="line"/>
    </contour>
    <contour>
      <point x="208" y="30" type="line"/>
      <point x="517" y="30" type="line"/>
      <point x="556" y="166" type="line"/>
      <point x="169" y="166" type="line"/>
    </contour>
    <contour>
      <point x="1262" y="166" type="line"/>
      <point x="587" y="166" type="line"/>
      <point x="548" y="30" type="line"/>
      <point x="1224" y="30" type="line"/>
    </contour>
    <contour>
      <point x="1636" y="166" type="line"/>
      <point x="1293" y="166" type="line"/>
      <point x="1255" y="30" type="line"/>
      <point x="1598" y="30" type="line"/>
    </contour>
    <contour>
      <point x="1447" y="646" type="line"/>
      <point x="1752" y="646" type="line"/>
      <point x="1736" y="589"/>
      <point x="1706" y="482"/>
      <point x="1677" y="377"/>
      <point x="1647" y="271"/>
      <point x="1631" y="215" type="qcurve"/>
      <point x="1326" y="215" type="line"/>
    </contour>
    <contour>
      <point x="1064" y="646" type="line"/>
      <point x="1094" y="540"/>
      <point x="1156" y="319"/>
      <point x="1185" y="215" type="qcurve"/>
      <point x="937" y="215" type="line"/>
      <point x="937" y="646" type="line"/>
    </contour>
    <contour>
      <point x="741" y="646" type="line"/>
      <point x="869" y="646" type="line"/>
      <point x="869" y="215" type="line"/>
      <point x="620" y="215" type="line"/>
    </contour>
    <contour>
      <point x="358" y="646" type="line"/>
      <point x="388" y="540"/>
      <point x="450" y="319"/>
      <point x="479" y="215" type="qcurve"/>
      <point x="175" y="215" type="line"/>
      <point x="145" y="321"/>
      <point x="83" y="542"/>
      <point x="54" y="646" type="qcurve"/>
    </contour>
    <contour>
      <point x="194" y="147" type="line"/>
      <point x="531" y="147" type="line"/>
      <point x="522" y="117"/>
      <point x="511" y="76"/>
      <point x="503" y="49" type="qcurve"/>
      <point x="222" y="49" type="line"/>
    </contour>
    <contour>
      <point x="1209" y="49" type="line"/>
      <point x="573" y="49" type="line"/>
      <point x="582" y="79"/>
      <point x="593" y="120"/>
      <point x="601" y="147" type="qcurve"/>
      <point x="1238" y="147" type="line"/>
    </contour>
    <contour>
      <point x="1583" y="49" type="line"/>
      <point x="1279" y="49" type="line"/>
      <point x="1287" y="77"/>
      <point x="1301" y="123"/>
      <point x="1308" y="147" type="qcurve"/>
      <point x="1612" y="147" type="line"/>
    </contour>
  </outline>
</glyph>
<glyph name="X" format="2">
  <advance width="1154"/>
  <unicode hex="0058"/>
  <outline>
    <contour>
      <point x="1134" y="695" type="line"/>
      <point x="1134" y="514" type="line" smooth="yes"/>
      <point x="1134" y="458"/>
      <point x="1073" y="369"/>
      <point x="1025" y="348" type="qcurve"/>
      <point x="1073" y="327"/>
      <point x="1134" y="238"/>
      <point x="1134" y="182" type="qcurve" smooth="yes"/>
      <point x="1134" y="0" type="line"/>
      <point x="23" y="0" type="line"/>
      <point x="23" y="182" type="line" smooth="yes"/>
      <point x="23" y="238"/>
      <point x="84" y="327"/>
      <point x="133" y="348" type="qcurve"/>
      <point x="84" y="369"/>
      <point x="23" y="458"/>
      <point x="23" y="514" type="qcurve" smooth="yes"/>
      <point x="23" y="695" type="line"/>
    </contour>
    <contour>
      <point x="53" y="514" type="line" smooth="yes"/>
      <point x="53" y="483"/>
      <point x="77" y="428"/>
      <point x="118" y="387"/>
      <point x="173" y="363"/>
      <point x="205" y="363" type="qcurve" smooth="yes"/>
      <point x="236" y="363"/>
      <point x="291" y="387"/>
      <point x="332" y="428"/>
      <point x="356" y="483"/>
      <point x="356" y="514" type="qcurve" smooth="yes"/>
      <point x="356" y="665" type="line"/>
      <point x="53" y="665" type="line"/>
    </contour>
    <contour>
      <point x="356" y="30" type="line"/>
      <point x="356" y="182" type="line" smooth="yes"/>
      <point x="356" y="213"/>
      <point x="332" y="268"/>
      <point x="291" y="309"/>
      <point x="236" y="333"/>
      <point x="205" y="333" type="qcurve" smooth="yes"/>
      <point x="173" y="333"/>
      <point x="118" y="309"/>
      <point x="77" y="268"/>
      <point x="53" y="213"/>
      <point x="53" y="182" type="qcurve" smooth="yes"/>
      <point x="53" y="30" type="line"/>
    </contour>
    <contour>
      <point x="771" y="30" type="line"/>
      <point x="771" y="182" type="line" smooth="yes"/>
      <point x="771" y="238"/>
      <point x="832" y="327"/>
      <point x="881" y="348" type="qcurve"/>
      <point x="832" y="369"/>
      <point x="771" y="458"/>
      <point x="771" y="514" type="qcurve" smooth="yes"/>
      <point x="771" y="665" type="line"/>
      <point x="386" y="665" type="line"/>
      <point x="386" y="514" type="line" smooth="yes"/>
      <point x="386" y="458"/>
      <point x="325" y="369"/>
      <point x="277" y="348" type="qcurve"/>
      <point x="325" y="327"/>
      <point x="386" y="238"/>
      <point x="386" y="182" type="qcurve" smooth="yes"/>
      <point x="386" y="30" type="line"/>
    </contour>
    <contour>
      <point x="1104" y="182" type="line" smooth="yes"/>
      <point x="1104" y="213"/>
      <point x="1080" y="268"/>
      <point x="1039" y="309"/>
      <point x="984" y="333"/>
      <point x="953" y="333" type="qcurve" smooth="yes"/>
      <point x="921" y="333"/>
      <point x="866" y="309"/>
      <point x="825" y="268"/>
      <point x="801" y="213"/>
      <point x="801" y="182" type="qcurve" smooth="yes"/>
      <point x="801" y="30" type="line"/>
      <point x="1104" y="30" type="line"/>
    </contour>
    <contour>
      <point x="801" y="665" type="line"/>
      <point x="801" y="514" type="line" smooth="yes"/>
      <point x="801" y="483"/>
      <point x="825" y="428"/>
      <point x="866" y="387"/>
      <point x="921" y="363"/>
      <point x="953" y="363" type="qcurve" smooth="yes"/>
      <point x="984" y="363"/>
      <point x="1039" y="387"/>
      <point x="1080" y="428"/>
      <point x="1104" y="483"/>
      <point x="1104" y="514" type="qcurve" smooth="yes"/>
      <point x="1104" y="665" type="line"/>
    </contour>
    <contour>
      <point x="72" y="514" type="qcurve" smooth="yes"/>
      <point x="72" y="646" type="line"/>
      <point x="337" y="646" type="line"/>
      <point x="337" y="514" type="line" smooth="yes"/>
      <point x="337" y="487"/>
      <point x="316" y="439"/>
      <point x="280" y="403"/>
      <point x="232" y="382"/>
      <point x="205" y="382" type="qcurve" smooth="yes"/>
      <point x="177" y="382"/>
      <point x="129" y="403"/>
      <point x="93" y="439"/>
      <point x="72" y="487"/>
    </contour>
    <contour>
      <point x="72" y="49" type="line"/>
      <point x="72" y="182" type="line" smooth="yes"/>
      <point x="72" y="209"/>
      <point x="93" y="257"/>
      <point x="129" y="293"/>
      <point x="177" y="314"/>
      <point x="205" y="314" type="qcurve" smooth="yes"/>
      <point x="232" y="314"/>
      <point x="280" y="293"/>
      <point x="316" y="257"/>
      <point x="337" y="209"/>
      <point x="337" y="182" type="qcurve" smooth="yes"/>
      <point x="337" y="49" type="line"/>
    </contour>
    <contour>
      <point x="1085" y="182" type="qcurve" smooth="yes"/>
      <point x="1085" y="49" type="line"/>
      <point x="820" y="49" type="line"/>
      <point x="820" y="182" type="line" smooth="yes"/>
      <point x="820" y="209"/>
      <point x="841" y="257"/>
      <point x="877" y="293"/>
      <point x="925" y="314"/>
      <point x="953" y="314" type="qcurve" smooth="yes"/>
      <point x="980" y="314"/>
      <point x="1028" y="293"/>
      <point x="1064" y="257"/>
      <point x="1085" y="209"/>
    </contour>
    <contour>
      <point x="1085" y="646" type="line"/>
      <point x="1085" y="514" type="line" smooth="yes"/>
      <point x="1085" y="487"/>
      <point x="1064" y="439"/>
      <point x="1028" y="403"/>
      <point x="980" y="382"/>
      <point x="953" y="382" type="qcurve" smooth="yes"/>
      <point x="925" y="382"/>
      <point x="877" y="403"/>
      <point x="841" y="439"/>
      <point x="820" y="487"/>
      <point x="820" y="514" type="qcurve" smooth="yes"/>
      <point x="820" y="646" type="line"/>
    </contour>
    <contour>
      <point x="405" y="49" type="line"/>
      <point x="405" y="182" type="line" smooth="yes"/>
      <point x="405" y="233"/>
      <point x="354" y="321"/>
      <point x="316" y="348" type="qcurve"/>
      <point x="356" y="375"/>
      <point x="405" y="462"/>
      <point x="405" y="514" type="qcurve" smooth="yes"/>
      <point x="405" y="646" type="line"/>
      <point x="752" y="646" type="line"/>
      <point x="752" y="514" type="line" smooth="yes"/>
      <point x="752" y="463"/>
      <point x="801" y="375"/>
      <point x="841" y="348" type="qcurve"/>
      <point x="801" y="321"/>
      <point x="752" y="233"/>
      <point x="752" y="182" type="qcurve" smooth="yes"/>
      <point x="752" y="49" type="line"/>
    </contour>
  </outline>
</glyph>
<glyph name="Z" format="2">
  <advance width="1162"/>
  <unicode hex="005A"/>
  <outline>
    <contour>
      <point x="973" y="196" type="line"/>
      <point x="1140" y="196" type="line"/>
      <point x="1140" y="0" type="line"/>
      <point x="195" y="0" type="line"/>
      <point x="160" y="3"/>
      <point x="100" y="34"/>
      <point x="55" y="82"/>
      <point x="29" y="145"/>
      <point x="29" y="181" type="qcurve" smooth="yes"/>
      <point x="29" y="217"/>
      <point x="55" y="280"/>
      <point x="100" y="328"/>
      <point x="160" y="358"/>
      <point x="195" y="361" type="qcurve"/>
      <point x="195" y="362" type="line"/>
      <point x="195" y="498" type="line"/>
      <point x="29" y="498" type="line"/>
      <point x="29" y="695" type="line"/>
      <point x="973" y="695" type="line"/>
      <point x="1008" y="692"/>
      <point x="1069" y="661"/>
      <point x="1114" y="612"/>
      <point x="1140" y="549"/>
      <point x="1140" y="513" type="qcurve" smooth="yes"/>
      <point x="1140" y="477"/>
      <point x="1114" y="414"/>
      <point x="1069" y="366"/>
      <point x="1008" y="336"/>
      <point x="973" y="333" type="qcurve"/>
      <point x="973" y="332" type="line"/>
    </contour>
    <contour>
      <point x="1110" y="513" type="qcurve" smooth="yes"/>
      <point x="1110" y="544"/>
      <point x="1086" y="600"/>
      <point x="1045" y="641"/>
      <point x="989" y="665"/>
      <point x="958" y="665" type="qcurve" smooth="yes"/>
      <point x="927" y="665"/>
      <point x="872" y="641"/>
      <point x="831" y="600"/>
      <point x="807" y="544"/>
      <point x="807" y="513" type="qcurve" smooth="yes"/>
      <point x="807" y="482"/>
      <point x="831" y="427"/>
      <point x="872" y="386"/>
      <point x="927" y="362"/>
      <point x="958" y="362" type="qcurve" smooth="yes"/>
      <point x="989" y="362"/>
      <point x="1045" y="386"/>
      <point x="1086" y="427"/>
      <point x="1110" y="482"/>
    </contour>
    <contour>
      <point x="225" y="528" type="line"/>
      <point x="225" y="362" type="line"/>
      <point x="859" y="362" type="line"/>
      <point x="822" y="387"/>
      <point x="777" y="465"/>
      <point x="777" y="513" type="qcurve" smooth="yes"/>
      <point x="777" y="561"/>
      <point x="822" y="640"/>
      <point x="859" y="665" type="qcurve"/>
      <point x="59" y="665" type="line"/>
      <point x="59" y="528" type="line"/>
    </contour>
    <contour>
      <point x="59" y="181" type="qcurve" smooth="yes"/>
      <point x="59" y="149"/>
      <point x="83" y="94"/>
      <point x="124" y="54"/>
      <point x="179" y="30"/>
      <point x="210" y="30" type="qcurve" smooth="yes"/>
      <point x="241" y="30"/>
      <point x="297" y="54"/>
      <point x="338" y="94"/>
      <point x="362" y="149"/>
      <point x="362" y="181" type="qcurve" smooth="yes"/>
      <point x="362" y="212"/>
      <point x="338" y="267"/>
      <point x="297" y="308"/>
      <point x="241" y="332"/>
      <point x="210" y="332" type="qcurve" smooth="yes"/>
      <point x="179" y="332"/>
      <point x="124" y="308"/>
      <point x="83" y="267"/>
      <point x="59" y="212"/>
    </contour>
    <contour>
      <point x="943" y="166" type="line"/>
      <point x="943" y="332" type="line"/>
      <point x="310" y="332" type="line"/>
      <point x="347" y="308"/>
      <point x="392" y="229"/>
      <point x="392" y="181" type="qcurve" smooth="yes"/>
      <point x="392" y="133"/>
      <point x="347" y="54"/>
      <point x="310" y="30" type="qcurve"/>
      <point x="1110" y="30" type="line"/>
      <point x="1110" y="166" type="line"/>
    </contour>
    <contour>
      <point x="1091" y="513" type="qcurve" smooth="yes"/>
      <point x="1091" y="486"/>
      <point x="1070" y="438"/>
      <point x="1034" y="402"/>
      <point x="985" y="381"/>
      <point x="958" y="381" type="qcurve" smooth="yes"/>
      <point x="931" y="381"/>
      <point x="883" y="402"/>
      <point x="847" y="438"/>
      <point x="826" y="486"/>
      <point x="826" y="513" type="qcurve" smooth="yes"/>
      <point x="826" y="540"/>
      <point x="847" y="589"/>
      <point x="883" y="625"/>
      <point x="931" y="646"/>
      <point x="958" y="646" type="qcurve" smooth="yes"/>
      <point x="985" y="646"/>
      <point x="1034" y="625"/>
      <point x="1070" y="589"/>
      <point x="1091" y="540"/>
    </contour>
    <contour>
      <point x="78" y="547" type="line"/>
      <point x="78" y="646" type="line"/>
      <point x="808" y="646" type="line"/>
      <point x="758" y="591"/>
      <point x="758" y="513" type="qcurve" smooth="yes"/>
      <point x="758" y="475"/>
      <point x="785" y="407"/>
      <point x="808" y="381" type="qcurve"/>
      <point x="244" y="381" type="line"/>
      <point x="244" y="547" type="line"/>
    </contour>
    <contour>
      <point x="78" y="181" type="qcurve" smooth="yes"/>
      <point x="78" y="208"/>
      <point x="99" y="256"/>
      <point x="135" y="292"/>
      <point x="183" y="313"/>
      <point x="210" y="313" type="qcurve" smooth="yes"/>
      <point x="237" y="313"/>
      <point x="286" y="292"/>
      <point x="322" y="256"/>
      <point x="343" y="208"/>
      <point x="343" y="181" type="qcurve" smooth="yes"/>
      <point x="343" y="154"/>
      <point x="322" y="106"/>
      <point x="286" y="70"/>
      <point x="237" y="49"/>
      <point x="210" y="49" type="qcurve" smooth="yes"/>
      <point x="183" y="49"/>
      <point x="135" y="70"/>
      <point x="99" y="106"/>
      <point x="78" y="154"/>
    </contour>
    <contour>
      <point x="1091" y="147" type="line"/>
      <point x="1091" y="49" type="line"/>
      <point x="361" y="49" type="line"/>
      <point x="385" y="75"/>
      <point x="411" y="143"/>
      <point x="411" y="181" type="qcurve" smooth="yes"/>
      <point x="411" y="219"/>
      <point x="385" y="287"/>
      <point x="361" y="313" type="qcurve"/>
      <point x="924" y="313" type="line"/>
      <point x="924" y="147" type="line"/>
    </contour>
  </outline>
</glyph>
<glyph name="backslash" format="2">
  <advance width="549"/>
  <unicode hex="005C"/>
  <outline>
    <contour>
      <point x="459" y="53" type="line"/>
      <point x="324" y="53" type="line"/>
      <point x="95" y="646" type="line"/>
      <point x="230" y="646" type="line"/>
    </contour>
    <contour>
      <point x="68" y="665" type="line"/>
      <point x="312" y="34" type="line"/>
      <point x="485" y="34" type="line"/>
      <point x="241" y="665" type="line"/>
    </contour>
    <contour>
      <point x="526" y="0" type="line"/>
      <point x="293" y="0" type="line"/>
      <point x="26" y="695" type="line"/>
      <point x="260" y="695" type="line"/>
    </contour>
  </outline>
</glyph>
<glyph name="bracketright" format="2">
  <advance width="577"/>
  <unicode hex="005D"/>
  <outline>
    <contour>
      <point x="77" y="805" type="line"/>
      <point x="77" y="880" type="line"/>
      <point x="123" y="880" type="line"/>
      <point x="123" y="805" type="line"/>
    </contour>
    <contour>
      <point x="123" y="-72" type="line"/>
      <point x="123" y="-147" type="line"/>
      <point x="77" y="-147" type="line"/>
      <point x="77" y="-72" type="line"/>
    </contour>
    <contour>
      <point x="58" y="-166" type="line"/>
      <point x="142" y="-166" type="line"/>
      <point x="142" y="-53" type="line"/>
      <point x="58" y="-53" type="line"/>
    </contour>
    <contour>
      <point x="58" y="786" type="line"/>
      <point x="142" y="786" type="line"/>
      <point x="142" y="899" type="line"/>
      <point x="58" y="899" type="line"/>
    </contour>
    <contour>
      <point x="191" y="880" type="line"/>
      <point x="497" y="880" type="line"/>
      <point x="497" y="-147" type="line"/>
      <point x="191" y="-147" type="line"/>
    </contour>
    <contour>
      <point x="516" y="-166" type="line"/>
      <point x="516" y="899" type="line"/>
      <point x="172" y="899" type="line"/>
      <point x="172" y="-166" type="line"/>
    </contour>
    <contour>
      <point x="142" y="756" type="line"/>
      <point x="28" y="756" type="line"/>
      <point x="28" y="929" type="line"/>
      <point x="546" y="929" type="line"/>
      <point x="546" y="-196" type="line"/>
      <point x="28" y="-196" type="line"/>
      <point x="28" y="-23" type="line"/>
      <point x="142" y="-23" type="line"/>
    </contour>
  </outline>
</glyph>
<glyph name="underscore" format="2">
  <advance width="733"/>
  <unicode hex="005F"/>
  <outline>
    <contour>
      <point x="26" y="-26" type="line"/>
      <point x="707" y="-26" type="line"/>
      <point x="707" y="-203" type="line"/>
      <point x="26" y="-203" type="line"/>
    </contour>
    <contour>
      <point x="677" y="-173" type="line"/>
      <point x="677" y="-59" type="line"/>
      <point x="56" y="-59" type="line"/>
      <point x="56" y="-173" type="line"/>
    </contour>
    <contour>
      <point x="658" y="-154" type="line"/>
      <point x="75" y="-154" type="line"/>
      <point x="75" y="-78" type="line"/>
      <point x="658" y="-78" type="line"/>
    </contour>
  </outline>
</glyph>
<glyph name="v" format="2">
  <advance width="1102"/>
  <unicode hex="0076"/>
  <outline>
    <contour>
      <point x="709" y="695" type="line"/>
      <point x="1114" y="695" type="line"/>
      <point x="919" y="0" type="line"/>
      <point x="190" y="0" type="line"/>
      <point x="-6" y="695" type="line"/>
      <point x="399" y="695" type="line"/>
      <point x="540" y="196" type="line"/>
      <point x="543" y="196" type="line"/>
      <point x="569" y="196" type="line"/>
    </contour>
    <contour>
      <point x="34" y="665" type="line"/>
      <point x="166" y="196" type="line"/>
      <point x="508" y="196" type="line"/>
      <point x="377" y="665" type="line"/>
    </contour>
    <contour>
      <point x="522" y="30" type="line"/>
      <point x="560" y="166" type="line"/>
      <point x="174" y="166" type="line"/>
      <point x="212" y="30" type="line"/>
    </contour>
    <contour>
      <point x="732" y="665" type="line"/>
      <point x="553" y="30" type="line"/>
      <point x="896" y="30" type="line"/>
      <point x="1075" y="665" type="line"/>
    </contour>
    <contour>
      <point x="363" y="646" type="line"/>
      <point x="392" y="539"/>
      <point x="455" y="321"/>
      <point x="484" y="215" type="qcurve"/>
      <point x="180" y="215" type="line"/>
      <point x="150" y="321"/>
      <point x="88" y="542"/>
      <point x="59" y="646" type="qcurve"/>
    </contour>
    <contour>
      <point x="226" y="49" type="line"/>
      <point x="219" y="75"/>
      <point x="205" y="124"/>
      <point x="198" y="147" type="qcurve"/>
      <point x="536" y="147" type="line"/>
      <point x="528" y="119"/>
      <point x="514" y="73"/>
      <point x="507" y="49" type="qcurve"/>
    </contour>
    <contour>
      <point x="1051" y="646" type="line"/>
      <point x="1029" y="568"/>
      <point x="987" y="420"/>
      <point x="945" y="274"/>
      <point x="903" y="126"/>
      <point x="881" y="49" type="qcurve"/>
      <point x="577" y="49" type="line"/>
      <point x="599" y="126"/>
      <point x="641" y="274"/>
      <point x="683" y="421"/>
      <point x="725" y="569"/>
      <point x="746" y="646" type="qcurve"/>
    </contour>
  </outline>
</glyph>
<glyph name="yen" format="2">
  <advance width="1114"/>
  <unicode hex="00A5"/>
  <outline>
    <contour>
      <point x="190" y="416" type="line"/>
      <point x="155" y="419"/>
      <point x="95" y="450"/>
      <point x="50" y="498"/>
      <point x="24" y="561"/>
      <point x="24" y="597" type="qcurve" smooth="yes"/>
      <point x="24" y="695" type="line"/>
      <point x="1092" y="695" type="line"/>
      <point x="1092" y="597" type="line" smooth="yes"/>
      <point x="1092" y="561"/>
      <point x="1066" y="498"/>
      <point x="1021" y="450"/>
      <point x="961" y="419"/>
      <point x="926" y="416" type="qcurve"/>
    </contour>
    <contour>
      <point x="165" y="218" type="line"/>
      <point x="359" y="218" type="line"/>
      <point x="359" y="287" type="line"/>
      <point x="165" y="287" type="line"/>
      <point x="165" y="407" type="line"/>
      <point x="961" y="407" type="line"/>
      <point x="961" y="287" type="line"/>
      <point x="757" y="287" type="line"/>
      <point x="757" y="218" type="line"/>
      <point x="961" y="218" type="line"/>
      <point x="961" y="98" type="line"/>
      <point x="760" y="98" type="line"/>
      <point x="760" y="-1" type="line"/>
      <point x="356" y="-1" type="line"/>
      <point x="356" y="98" type="line"/>
      <point x="165" y="98" type="line"/>
    </contour>
    <contour>
      <point x="812" y="446" type="line"/>
      <point x="775" y="470"/>
      <point x="730" y="549"/>
      <point x="730" y="597" type="qcurve" smooth="yes"/>
      <point x="730" y="665" type="line"/>
      <point x="386" y="665" type="line"/>
      <point x="386" y="597" type="line" smooth="yes"/>
      <point x="386" y="549"/>
      <point x="342" y="470"/>
      <point x="304" y="446" type="qcurve"/>
    </contour>
    <contour>
      <point x="355" y="465" type="line"/>
      <point x="378" y="491"/>
      <point x="405" y="560"/>
      <point x="405" y="597" type="qcurve" smooth="yes"/>
      <point x="405" y="646" type="line"/>
      <point x="711" y="646" type="line"/>
      <point x="711" y="597" type="line" smooth="yes"/>
      <point x="711" y="559"/>
      <point x="737" y="491"/>
      <point x="761" y="465" type="qcurve"/>
    </contour>
    <contour>
      <point x="1063" y="665" type="line"/>
      <point x="760" y="665" type="line"/>
      <point x="760" y="597" type="line" smooth="yes"/>
      <point x="760" y="566"/>
      <point x="784" y="511"/>
      <point x="825" y="470"/>
      <point x="880" y="446"/>
      <point x="911" y="446" type="qcurve" smooth="yes"/>
      <point x="942" y="446"/>
      <point x="998" y="470"/>
      <point x="1039" y="511"/>
      <point x="1063" y="566"/>
      <point x="1063" y="597" type="qcurve" smooth="yes"/>
    </contour>
    <contour>
      <point x="54" y="597" type="line" smooth="yes"/>
      <point x="54" y="566"/>
      <point x="78" y="511"/>
      <point x="118" y="470"/>
      <point x="173" y="446"/>
      <point x="205" y="446" type="qcurve" smooth="yes"/>
      <point x="236" y="446"/>
      <point x="291" y="470"/>
      <point x="332" y="511"/>
      <point x="356" y="566"/>
      <point x="356" y="597" type="qcurve" smooth="yes"/>
      <point x="356" y="665" type="line"/>
      <point x="54" y="665" type="line"/>
    </contour>
    <contour>
      <point x="195" y="127" type="line"/>
      <point x="931" y="127" type="line"/>
      <point x="931" y="191" type="line"/>
      <point x="195" y="191" type="line"/>
    </contour>
    <contour>
      <point x="195" y="316" type="line"/>
      <point x="931" y="316" type="line"/>
      <point x="931" y="380" type="line"/>
      <point x="195" y="380" type="line"/>
    </contour>
    <contour>
      <point x="1044" y="597" type="line" smooth="yes"/>
      <point x="1044" y="570"/>
      <point x="1023" y="522"/>
      <point x="987" y="486"/>
      <point x="938" y="465"/>
      <point x="911" y="465" type="qcurve" smooth="yes"/>
      <point x="884" y="465"/>
      <point x="836" y="486"/>
      <point x="800" y="522"/>
      <point x="779" y="570"/>
      <point x="779" y="597" type="qcurve" smooth="yes"/>
      <point x="779" y="646" type="line"/>
      <point x="1044" y="646" type="line"/>
    </contour>
    <contour>
      <point x="73" y="597" type="qcurve" smooth="yes"/>
      <point x="73" y="646" type="line"/>
      <point x="337" y="646" type="line"/>
      <point x="337" y="597" type="line" smooth="yes"/>
      <point x="337" y="570"/>
      <point x="316" y="522"/>
      <point x="280" y="486"/>
      <point x="232" y="465"/>
      <point x="205" y="465" type="qcurve" smooth="yes"/>
      <point x="178" y="465"/>
      <point x="130" y="486"/>
      <point x="94" y="522"/>
      <point x="73" y="570"/>
    </contour>
    <contour>
      <point x="727" y="218" type="line"/>
      <point x="727" y="284" type="line"/>
      <point x="389" y="284" type="line"/>
      <point x="389" y="218" type="line"/>
    </contour>
    <contour>
      <point x="730" y="93" type="line"/>
      <point x="386" y="93" type="line"/>
      <point x="386" y="27" type="line"/>
      <point x="730" y="27" type="line"/>
    </contour>
    <contour>
      <point x="214" y="361" type="line"/>
      <point x="912" y="361" type="line"/>
      <point x="912" y="335" type="line"/>
      <point x="214" y="335" type="line"/>
    </contour>
    <contour>
      <point x="912" y="146" type="line"/>
      <point x="214" y="146" type="line"/>
      <point x="214" y="172" type="line"/>
      <point x="912" y="172" type="line"/>
    </contour>
    <contour>
      <point x="708" y="237" type="line"/>
      <point x="408" y="237" type="line"/>
      <point x="408" y="265" type="line"/>
      <point x="708" y="265" type="line"/>
    </contour>
    <contour>
      <point x="711" y="46" type="line"/>
      <point x="405" y="46" type="line"/>
      <point x="405" y="74" type="line"/>
      <point x="711" y="74" type="line"/>
    </contour>
  </outline>
</glyph>
<glyph name="dieresis" format="2">
  <advance width="1209"/>
  <unicode hex="00A8"/>
  <outline>
    <contour>
      <point x="293" y="944" type="line"/>
      <point x="580" y="944" type="line"/>
      <point x="580" y="725" type="line"/>
      <point x="293" y="725" type="line"/>
    </contour>
    <contour>
      <point x="323" y="914" type="line"/>
      <point x="323" y="753" type="line"/>
      <point x="550" y="753" type="line"/>
      <point x="550" y="914" type="line"/>
    </contour>
    <contour>
      <point x="342" y="895" type="line"/>
      <point x="531" y="895" type="line"/>
      <point x="531" y="772" type="line"/>
      <point x="342" y="772" type="line"/>
    </contour>
    <contour>
      <point x="679" y="944" type="line"/>
      <point x="966" y="944" type="line"/>
      <point x="966" y="725" type="line"/>
      <point x="679" y="725" type="line"/>
    </contour>
    <contour>
      <point x="709" y="914" type="line"/>
      <point x="709" y="753" type="line"/>
      <point x="936" y="753" type="line"/>
      <point x="936" y="914" type="line"/>
    </contour>
    <contour>
      <point x="728" y="895" type="line"/>
      <point x="917" y="895" type="line"/>
      <point x="917" y="772" type="line"/>
      <point x="728" y="772" type="line"/>
    </contour>
  </outline>
</glyph>
<glyph name="guillemotleft" format="2">
  <advance width="502"/>
  <unicode hex="00AB"/>
  <outline>
    <contour>
      <point x="10" y="395" type="line"/>
      <point x="309" y="679" type="line"/>
      <point x="309" y="489" type="line"/>
      <point x="484" y="679" type="line"/>
      <point x="484" y="81" type="line"/>
      <point x="309" y="294" type="line"/>
      <point x="309" y="81" type="line"/>
    </contour>
    <contour>
      <point x="456" y="156" type="line"/>
      <point x="456" y="609" type="line"/>
      <point x="247" y="397" type="line"/>
    </contour>
    <contour>
      <point x="281" y="462" type="line"/>
      <point x="281" y="609" type="line"/>
      <point x="52" y="394" type="line"/>
      <point x="281" y="156" type="line"/>
      <point x="281" y="323" type="line"/>
      <point x="212" y="397" type="line"/>
    </contour>
    <contour>
      <point x="437" y="564" type="line"/>
      <point x="437" y="204" type="line"/>
      <point x="282" y="394" type="line"/>
    </contour>
    <contour>
      <point x="79" y="393" type="line"/>
      <point x="262" y="564" type="line"/>
      <point x="262" y="470" type="line"/>
      <point x="183" y="399" type="line"/>
      <point x="262" y="314" type="line"/>
      <point x="262" y="204" type="line"/>
    </contour>
  </outline>
</glyph>
<glyph name="degree" format="2">
  <advance width="499"/>
  <unicode hex="00B0"/>
  <outline>
    <contour>
      <point x="348" y="264" type="line"/>
      <point x="304" y="243"/>
      <point x="263" y="243" type="qcurve" smooth="yes"/>
      <point x="247" y="243" type="line" smooth="yes"/>
      <point x="224" y="243"/>
      <point x="172" y="254"/>
      <point x="151" y="263" type="qcurve"/>
      <point x="153" y="263" type="line"/>
      <point x="124" y="276"/>
      <point x="74" y="318"/>
      <point x="37" y="372"/>
      <point x="16" y="434"/>
      <point x="16" y="469" type="qcurve" smooth="yes"/>
      <point x="16" y="515"/>
      <point x="51" y="596"/>
      <point x="112" y="658"/>
      <point x="192" y="695"/>
      <point x="237" y="695" type="qcurve" smooth="yes"/>
      <point x="263" y="695" type="line" smooth="yes"/>
      <point x="302" y="695"/>
      <point x="383" y="658"/>
      <point x="445" y="596"/>
      <point x="484" y="515"/>
      <point x="484" y="469" type="qcurve" smooth="yes"/>
      <point x="484" y="434"/>
      <point x="463" y="372"/>
      <point x="426" y="318"/>
      <point x="376" y="276"/>
      <point x="347" y="263" type="qcurve"/>
    </contour>
    <contour>
      <point x="43" y="468" type="qcurve" smooth="yes"/>
      <point x="43" y="426"/>
      <point x="73" y="354"/>
      <point x="126" y="300"/>
      <point x="196" y="268"/>
      <point x="236" y="268" type="qcurve" smooth="yes"/>
      <point x="262" y="268" type="line" smooth="yes"/>
      <point x="302" y="268"/>
      <point x="373" y="300"/>
      <point x="424" y="354"/>
      <point x="456" y="426"/>
      <point x="456" y="468" type="qcurve" smooth="yes"/>
      <point x="456" y="509"/>
      <point x="424" y="581"/>
      <point x="373" y="635"/>
      <point x="302" y="667"/>
      <point x="262" y="667" type="qcurve" smooth="yes"/>
      <point x="236" y="667" type="line" smooth="yes"/>
      <point x="196" y="667"/>
      <point x="126" y="635"/>
      <point x="73" y="581"/>
      <point x="43" y="509"/>
    </contour>
    <contour>
      <point x="236" y="289" type="line" smooth="yes"/>
      <point x="202" y="289"/>
      <point x="140" y="318"/>
      <point x="93" y="366"/>
      <point x="64" y="429"/>
      <point x="64" y="466" type="qcurve" smooth="yes"/>
      <point x="64" y="501"/>
      <point x="91" y="567"/>
      <point x="137" y="617"/>
      <point x="195" y="646"/>
      <point x="229" y="646" type="qcurve" smooth="yes"/>
      <point x="270" y="646" type="line" smooth="yes"/>
      <point x="304" y="646"/>
      <point x="365" y="617"/>
      <point x="410" y="567"/>
      <point x="436" y="501"/>
      <point x="436" y="466" type="qcurve" smooth="yes"/>
      <point x="436" y="429"/>
      <point x="409" y="366"/>
      <point x="363" y="318"/>
      <point x="302" y="289"/>
      <point x="270" y="289" type="qcurve" smooth="yes"/>
    </contour>
    <contour>
      <point x="157" y="469" type="qcurve" smooth="yes"/>
      <point x="157" y="450"/>
      <point x="171" y="417"/>
      <point x="193" y="392"/>
      <point x="225" y="378"/>
      <point x="243" y="378" type="qcurve" smooth="yes"/>
      <point x="254" y="378" type="line" smooth="yes"/>
      <point x="273" y="378"/>
      <point x="305" y="392"/>
      <point x="328" y="417"/>
      <point x="343" y="450"/>
      <point x="343" y="469" type="qcurve" smooth="yes"/>
      <point x="343" y="487"/>
      <point x="328" y="520"/>
      <point x="305" y="546"/>
      <point x="273" y="560"/>
      <point x="254" y="560" type="qcurve" smooth="yes"/>
      <point x="243" y="560" type="line" smooth="yes"/>
      <point x="225" y="560"/>
      <point x="193" y="546"/>
      <point x="171" y="520"/>
      <point x="157" y="487"/>
    </contour>
    <contour>
      <point x="139" y="467" type="qcurve" smooth="yes"/>
      <point x="139" y="445"/>
      <point x="156" y="406"/>
      <point x="184" y="375"/>
      <point x="222" y="359"/>
      <point x="243" y="359" type="qcurve" smooth="yes"/>
      <point x="258" y="359" type="line" smooth="yes"/>
      <point x="279" y="359"/>
      <point x="317" y="375"/>
      <point x="347" y="406"/>
      <point x="364" y="445"/>
      <point x="364" y="467" type="qcurve" smooth="yes"/>
      <point x="364" y="489"/>
      <point x="347" y="528"/>
      <point x="317" y="560"/>
      <point x="279" y="578"/>
      <point x="258" y="578" type="qcurve" smooth="yes"/>
      <point x="243" y="578" type="line" smooth="yes"/>
      <point x="222" y="578"/>
      <point x="184" y="560"/>
      <point x="156" y="528"/>
      <point x="139" y="489"/>
    </contour>
    <contour>
      <point x="277" y="418" type="line"/>
      <point x="266" y="412"/>
      <point x="256" y="412" type="qcurve" smooth="yes"/>
      <point x="241" y="412" type="line" smooth="yes"/>
      <point x="213" y="412"/>
      <point x="189" y="449"/>
      <point x="189" y="468" type="qcurve" smooth="yes"/>
      <point x="189" y="491"/>
      <point x="221" y="526"/>
      <point x="242" y="526" type="qcurve" smooth="yes"/>
      <point x="260" y="526" type="line" smooth="yes"/>
      <point x="278" y="526"/>
      <point x="309" y="491"/>
      <point x="309" y="468" type="qcurve" smooth="yes"/>
      <point x="309" y="452"/>
      <point x="290" y="424"/>
      <point x="277" y="416" type="qcurve"/>
    </contour>
  </outline>
</glyph>
<glyph name="acute" format="2">
  <advance width="1185"/>
  <unicode hex="00B4"/>
  <outline>
    <contour>
      <point x="463" y="932" type="line"/>
      <point x="785" y="932" type="line"/>
      <point x="660" y="724" type="line"/>
      <point x="332" y="724" type="line"/>
    </contour>
    <contour>
      <point x="637" y="754" type="line"/>
      <point x="730" y="899" type="line"/>
      <point x="481" y="899" type="line"/>
      <point x="388" y="754" type="line"/>
    </contour>
    <contour>
      <point x="624" y="773" type="line"/>
      <point x="426" y="773" type="line"/>
      <point x="496" y="880" type="line"/>
      <point x="691" y="880" type="line"/>
    </contour>
  </outline>
</glyph>
<glyph name="guillemotright" format="2">
  <advance width="502"/>
  <unicode hex="00BB"/>
  <outline>
    <contour>
      <point x="232" y="204" type="line"/>
      <point x="232" y="314" type="line"/>
      <point x="311" y="399" type="line"/>
      <point x="232" y="470" type="line"/>
      <point x="232" y="564" type="line"/>
      <point x="415" y="393" type="line"/>
    </contour>
    <contour>
      <point x="212" y="394" type="line"/>
      <point x="57" y="204" type="line"/>
      <point x="57" y="564" type="line"/>
    </contour>
    <contour>
      <point x="282" y="397" type="line"/>
      <point x="213" y="323" type="line"/>
      <point x="213" y="156" type="line"/>
      <point x="442" y="394" type="line"/>
      <point x="213" y="609" type="line"/>
      <point x="213" y="462" type="line"/>
    </contour>
    <contour>
      <point x="247" y="397" type="line"/>
      <point x="38" y="609" type="line"/>
      <point x="38" y="156" type="line"/>
    </contour>
    <contour>
      <point x="185" y="81" type="line"/>
      <point x="185" y="294" type="line"/>
      <point x="10" y="81" type="line"/>
      <point x="10" y="679" type="line"/>
      <point x="185" y="489" type="line"/>
      <point x="185" y="679" type="line"/>
      <point x="484" y="395" type="line"/>
    </contour>
  </outline>
</glyph>
<glyph name="Oslash" format="2">
  <advance width="1195"/>
  <unicode hex="00D8"/>
  <outline>
    <contour>
      <point x="636" y="783" type="line"/>
      <point x="857" y="783" type="line"/>
      <point x="828" y="695" type="line"/>
      <point x="836" y="695" type="line"/>
      <point x="836" y="694" type="line"/>
      <point x="910" y="691"/>
      <point x="1028" y="638"/>
      <point x="1118" y="548"/>
      <point x="1172" y="429"/>
      <point x="1175" y="362" type="qcurve"/>
      <point x="1175" y="332" type="line"/>
      <point x="1172" y="264"/>
      <point x="1118" y="146"/>
      <point x="1028" y="57"/>
      <point x="910" y="3"/>
      <point x="843" y="0" type="qcurve"/>
      <point x="567" y="0" type="line"/>
      <point x="532" y="-79" type="line"/>
      <point x="322" y="-79" type="line"/>
      <point x="351" y="1" type="line"/>
      <point x="282" y="7"/>
      <point x="235" y="27" type="qcurve" smooth="yes"/>
      <point x="172" y="55"/>
      <point x="78" y="149"/>
      <point x="23" y="275"/>
      <point x="23" y="347" type="qcurve" smooth="yes"/>
      <point x="23" y="419"/>
      <point x="78" y="546"/>
      <point x="172" y="640"/>
      <point x="298" y="695"/>
      <point x="370" y="695" type="qcurve" smooth="yes"/>
      <point x="603" y="695" type="line"/>
    </contour>
    <contour>
      <point x="827" y="30" type="line" smooth="yes"/>
      <point x="893" y="30"/>
      <point x="1008" y="80"/>
      <point x="1094" y="166"/>
      <point x="1144" y="281"/>
      <point x="1144" y="347" type="qcurve" smooth="yes"/>
      <point x="1144" y="413"/>
      <point x="1094" y="528"/>
      <point x="1008" y="615"/>
      <point x="893" y="665"/>
      <point x="833" y="665" type="qcurve" smooth="yes"/>
      <point x="808" y="665" type="line"/>
      <point x="581" y="30" type="line"/>
    </contour>
    <contour>
      <point x="593" y="665" type="line"/>
      <point x="370" y="665" type="line" smooth="yes"/>
      <point x="304" y="665"/>
      <point x="246" y="640" type="qcurve" smooth="yes"/>
      <point x="189" y="615"/>
      <point x="103" y="528"/>
      <point x="53" y="413"/>
      <point x="53" y="347" type="qcurve" smooth="yes"/>
      <point x="53" y="281"/>
      <point x="103" y="166"/>
      <point x="189" y="80"/>
      <point x="246" y="55" type="qcurve" smooth="yes"/>
      <point x="287" y="37"/>
      <point x="365" y="31" type="qcurve"/>
    </contour>
    <contour>
      <point x="833" y="646" type="line" smooth="yes"/>
      <point x="889" y="646"/>
      <point x="997" y="599"/>
      <point x="1078" y="518"/>
      <point x="1125" y="409"/>
      <point x="1125" y="347" type="qcurve" smooth="yes"/>
      <point x="1125" y="285"/>
      <point x="1078" y="177"/>
      <point x="997" y="96"/>
      <point x="889" y="49"/>
      <point x="827" y="49" type="qcurve" smooth="yes"/>
      <point x="608" y="49" type="line"/>
      <point x="826" y="646" type="line"/>
    </contour>
    <contour>
      <point x="254" y="72" type="qcurve" smooth="yes"/>
      <point x="200" y="96"/>
      <point x="119" y="177"/>
      <point x="72" y="285"/>
      <point x="72" y="347" type="qcurve" smooth="yes"/>
      <point x="72" y="409"/>
      <point x="119" y="518"/>
      <point x="200" y="599"/>
      <point x="308" y="646"/>
      <point x="370" y="646" type="qcurve" smooth="yes"/>
      <point x="560" y="646" type="line"/>
      <point x="345" y="51" type="line"/>
      <point x="291" y="56"/>
    </contour>
    <contour>
      <point x="653" y="750" type="line"/>
      <point x="633" y="695" type="line"/>
      <point x="635" y="695" type="line"/>
      <point x="364" y="-49" type="line"/>
      <point x="514" y="-49" type="line"/>
      <point x="814" y="752" type="line"/>
    </contour>
    <contour>
      <point x="665" y="731" type="line"/>
      <point x="780" y="731" type="line"/>
      <point x="497" y="-30" type="line"/>
      <point x="390" y="-30" type="line"/>
    </contour>
  </outline>
</glyph>
<glyph name="divide" format="2">
  <advance width="586"/>
  <unicode hex="00F7"/>
  <outline>
    <contour>
      <point x="351" y="13" type="qcurve"/>
      <point x="338" y="6"/>
      <point x="312" y="2"/>
      <point x="299" y="2" type="qcurve" smooth="yes"/>
      <point x="284" y="2" type="line" smooth="yes"/>
      <point x="271" y="2"/>
      <point x="246" y="6"/>
      <point x="235" y="13" type="qcurve"/>
      <point x="201" y="28"/>
      <point x="156" y="91"/>
      <point x="156" y="133" type="qcurve" smooth="yes"/>
      <point x="156" y="164"/>
      <point x="182" y="216"/>
      <point x="204" y="234" type="qcurve"/>
      <point x="22" y="234" type="line"/>
      <point x="22" y="469" type="line"/>
      <point x="199" y="469" type="line"/>
      <point x="179" y="486"/>
      <point x="156" y="536"/>
      <point x="156" y="566" type="qcurve" smooth="yes"/>
      <point x="156" y="593"/>
      <point x="176" y="641"/>
      <point x="211" y="675"/>
      <point x="258" y="695"/>
      <point x="284" y="695" type="qcurve" smooth="yes"/>
      <point x="299" y="695" type="line" smooth="yes"/>
      <point x="325" y="695"/>
      <point x="372" y="675"/>
      <point x="407" y="641"/>
      <point x="428" y="593"/>
      <point x="428" y="566" type="qcurve" smooth="yes"/>
      <point x="428" y="536"/>
      <point x="406" y="486"/>
      <point x="386" y="469" type="qcurve"/>
      <point x="568" y="469" type="line"/>
      <point x="568" y="234" type="line"/>
      <point x="379" y="234" type="line"/>
      <point x="401" y="216"/>
      <point x="428" y="164"/>
      <point x="428" y="133" type="qcurve" smooth="yes"/>
      <point x="428" y="91"/>
      <point x="385" y="28"/>
    </contour>
    <contour>
      <point x="538" y="264" type="line"/>
      <point x="538" y="436" type="line"/>
      <point x="52" y="436" type="line"/>
      <point x="52" y="264" type="line"/>
    </contour>
    <contour>
      <point x="191" y="567" type="qcurve" smooth="yes"/>
      <point x="191" y="547"/>
      <point x="206" y="512"/>
      <point x="231" y="486"/>
      <point x="265" y="471"/>
      <point x="285" y="471" type="qcurve" smooth="yes"/>
      <point x="297" y="471" type="line" smooth="yes"/>
      <point x="316" y="471"/>
      <point x="350" y="486"/>
      <point x="376" y="512"/>
      <point x="391" y="547"/>
      <point x="391" y="567" type="qcurve" smooth="yes"/>
      <point x="391" y="587"/>
      <point x="376" y="623"/>
      <point x="350" y="649"/>
      <point x="316" y="664"/>
      <point x="297" y="664" type="qcurve" smooth="yes"/>
      <point x="285" y="664" type="line" smooth="yes"/>
      <point x="265" y="664"/>
      <point x="231" y="649"/>
      <point x="206" y="623"/>
      <point x="191" y="587"/>
    </contour>
    <contour>
      <point x="191" y="134" type="qcurve" smooth="yes"/>
      <point x="191" y="114"/>
      <point x="206" y="79"/>
      <point x="231" y="53"/>
      <point x="265" y="38"/>
      <point x="285" y="38" type="qcurve" smooth="yes"/>
      <point x="297" y="38" type="line" smooth="yes"/>
      <point x="316" y="38"/>
      <point x="350" y="53"/>
      <point x="376" y="79"/>
      <point x="391" y="114"/>
      <point x="391" y="134" type="qcurve" smooth="yes"/>
      <point x="391" y="154"/>
      <point x="376" y="190"/>
      <point x="350" y="216"/>
      <point x="316" y="231"/>
      <point x="297" y="231" type="qcurve" smooth="yes"/>
      <point x="285" y="231" type="line" smooth="yes"/>
      <point x="265" y="231"/>
      <point x="231" y="216"/>
      <point x="206" y="190"/>
      <point x="191" y="154"/>
    </contour>
    <contour>
      <point x="519" y="283" type="line"/>
      <point x="71" y="283" type="line"/>
      <point x="71" y="417" type="line"/>
      <point x="519" y="417" type="line"/>
    </contour>
    <contour>
      <point x="283" y="495" type="line" smooth="yes"/>
      <point x="269" y="495"/>
      <point x="243" y="507"/>
      <point x="224" y="526"/>
      <point x="215" y="552"/>
      <point x="215" y="568" type="qcurve" smooth="yes"/>
      <point x="215" y="583"/>
      <point x="224" y="607"/>
      <point x="243" y="628"/>
      <point x="269" y="639"/>
      <point x="283" y="639" type="qcurve" smooth="yes"/>
      <point x="299" y="639" type="line" smooth="yes"/>
      <point x="313" y="639"/>
      <point x="340" y="628"/>
      <point x="357" y="607"/>
      <point x="367" y="583"/>
      <point x="367" y="568" type="qcurve" smooth="yes"/>
      <point x="367" y="552"/>
      <point x="357" y="526"/>
      <point x="339" y="507"/>
      <point x="313" y="495"/>
      <point x="299" y="495" type="qcurve" smooth="yes"/>
    </contour>
    <contour>
      <point x="283" y="62" type="line" smooth="yes"/>
      <point x="269" y="62"/>
      <point x="243" y="74"/>
      <point x="224" y="93"/>
      <point x="215" y="119"/>
      <point x="215" y="135" type="qcurve" smooth="yes"/>
      <point x="215" y="150"/>
      <point x="224" y="174"/>
      <point x="243" y="195"/>
      <point x="269" y="206"/>
      <point x="283" y="206" type="qcurve" smooth="yes"/>
      <point x="299" y="206" type="line" smooth="yes"/>
      <point x="313" y="206"/>
      <point x="340" y="195"/>
      <point x="357" y="174"/>
      <point x="367" y="150"/>
      <point x="367" y="135" type="qcurve" smooth="yes"/>
      <point x="367" y="119"/>
      <point x="357" y="93"/>
      <point x="339" y="74"/>
      <point x="313" y="62"/>
      <point x="299" y="62" type="qcurve" smooth="yes"/>
    </contour>
  </outline>
</glyph>
<glyph name="uni0136" format="2">
  <advance width="1163"/>
  <unicode hex="0136"/>
  <outline>
    <contour>
      <point x="1139" y="695" type="line"/>
      <point x="1139" y="514" type="line" smooth="yes"/>
      <point x="1139" y="458"/>
      <point x="1078" y="369"/>
      <point x="1030" y="348" type="qcurve"/>
      <point x="1078" y="327"/>
      <point x="1139" y="238"/>
      <point x="1139" y="182" type="qcurve" smooth="yes"/>
      <point x="1139" y="0" type="line"/>
      <point x="28" y="0" type="line"/>
      <point x="28" y="695" type="line"/>
    </contour>
    <contour>
      <point x="432" y="665" type="line"/>
      <point x="432" y="363" type="line"/>
      <point x="776" y="363" type="line"/>
      <point x="776" y="665" type="line"/>
    </contour>
    <contour>
      <point x="402" y="30" type="line"/>
      <point x="402" y="665" type="line"/>
      <point x="58" y="665" type="line"/>
      <point x="58" y="30" type="line"/>
    </contour>
    <contour>
      <point x="776" y="30" type="line"/>
      <point x="776" y="333" type="line"/>
      <point x="432" y="333" type="line"/>
      <point x="432" y="30" type="line"/>
    </contour>
    <contour>
      <point x="1109" y="182" type="line" smooth="yes"/>
      <point x="1109" y="213"/>
      <point x="1085" y="268"/>
      <point x="1044" y="309"/>
      <point x="988" y="333"/>
      <point x="957" y="333" type="qcurve" smooth="yes"/>
      <point x="806" y="333" type="line"/>
      <point x="806" y="30" type="line"/>
      <point x="1109" y="30" type="line"/>
    </contour>
    <contour>
      <point x="806" y="665" type="line"/>
      <point x="806" y="363" type="line"/>
      <point x="957" y="363" type="line" smooth="yes"/>
      <point x="988" y="363"/>
      <point x="1044" y="387"/>
      <point x="1085" y="428"/>
      <point x="1109" y="483"/>
      <point x="1109" y="514" type="qcurve" smooth="yes"/>
      <point x="1109" y="665" type="line"/>
    </contour>
    <contour>
      <point x="757" y="646" type="line"/>
      <point x="757" y="382" type="line"/>
      <point x="451" y="382" type="line"/>
      <point x="451" y="646" type="line"/>
    </contour>
    <contour>
      <point x="77" y="49" type="line"/>
      <point x="77" y="646" type="line"/>
      <point x="383" y="646" type="line"/>
      <point x="383" y="49" type="line"/>
    </contour>
    <contour>
      <point x="451" y="49" type="line"/>
      <point x="451" y="314" type="line"/>
      <point x="757" y="314" type="line"/>
      <point x="757" y="49" type="line"/>
    </contour>
    <contour>
      <point x="1090" y="182" type="qcurve" smooth="yes"/>
      <point x="1090" y="49" type="line"/>
      <point x="825" y="49" type="line"/>
      <point x="825" y="314" type="line"/>
      <point x="957" y="314" type="line" smooth="yes"/>
      <point x="984" y="314"/>
      <point x="1033" y="293"/>
      <point x="1069" y="257"/>
      <point x="1090" y="209"/>
    </contour>
    <contour>
      <point x="1090" y="646" type="line"/>
      <point x="1090" y="514" type="line" smooth="yes"/>
      <point x="1090" y="487"/>
      <point x="1069" y="439"/>
      <point x="1033" y="403"/>
      <point x="984" y="382"/>
      <point x="957" y="382" type="qcurve" smooth="yes"/>
      <point x="825" y="382" type="line"/>
      <point x="825" y="646" type="line"/>
    </contour>
    <contour>
      <point x="570" y="-317" type="qcurve"/>
      <point x="479" y="-317" type="line"/>
      <point x="497" y="-205" type="line"/>
      <point x="491" y="-201"/>
      <point x="490" y="-200" type="qcurve"/>
      <point x="464" y="-175"/>
      <point x="455" y="-122"/>
      <point x="478" y="-78"/>
      <point x="527" y="-51"/>
      <point x="559" y="-51" type="qcurve" smooth="yes"/>
      <point x="599" y="-51"/>
      <point x="656" y="-101"/>
      <point x="658" y="-137" type="qcurve" smooth="yes"/>
      <point x="659" y="-165"/>
      <point x="632" y="-228"/>
      <point x="615" y="-255" type="qcurve" smooth="yes"/>
      <point x="596" y="-287"/>
    </contour>
    <contour>
      <point x="516" y="-195" type="line"/>
      <point x="506" y="-186" type="line"/>
      <point x="507" y="-186" type="line"/>
      <point x="493" y="-172"/>
      <point x="482" y="-145"/>
      <point x="482" y="-132" type="qcurve" smooth="yes"/>
      <point x="482" y="-105"/>
      <point x="525" y="-67"/>
      <point x="560" y="-67" type="qcurve" smooth="yes"/>
      <point x="590" y="-67"/>
      <point x="635" y="-107"/>
      <point x="637" y="-136" type="qcurve"/>
      <point x="637" y="-157"/>
      <point x="618" y="-209"/>
      <point x="592" y="-257"/>
      <point x="567" y="-295"/>
      <point x="561" y="-302" type="qcurve"/>
      <point x="499" y="-302" type="line"/>
    </contour>
    <contour>
      <point x="687" y="-136" type="qcurve" smooth="yes"/>
      <point x="684" y="-91"/>
      <point x="649" y="-58" type="qcurve"/>
      <point x="611" y="-25"/>
      <point x="559" y="-25" type="qcurve" smooth="yes"/>
      <point x="533" y="-25"/>
      <point x="482" y="-42"/>
      <point x="464" y="-58" type="qcurve" smooth="yes"/>
      <point x="447" y="-74"/>
      <point x="432" y="-116"/>
      <point x="432" y="-135" type="qcurve"/>
      <point x="434" y="-171"/>
      <point x="461" y="-210"/>
      <point x="466" y="-215" type="qcurve"/>
      <point x="446" y="-344" type="line"/>
      <point x="580" y="-344" type="line"/>
      <point x="625" y="-295"/>
      <point x="669" y="-218"/>
      <point x="678" y="-191" type="qcurve" smooth="yes"/>
      <point x="689" y="-159"/>
    </contour>
  </outline>
</glyph>
<glyph name="uni013B" format="2">
  <advance width="914"/>
  <unicode hex="013B"/>
  <outline>
    <contour>
      <point x="432" y="695" type="line"/>
      <point x="432" y="280" type="line"/>
      <point x="889" y="280" type="line"/>
      <point x="889" y="0" type="line"/>
      <point x="28" y="0" type="line"/>
      <point x="28" y="695" type="line"/>
    </contour>
    <contour>
      <point x="859" y="250" type="line"/>
      <point x="432" y="250" type="line"/>
      <point x="432" y="30" type="line"/>
      <point x="859" y="30" type="line"/>
    </contour>
    <contour>
      <point x="402" y="30" type="line"/>
      <point x="402" y="665" type="line"/>
      <point x="58" y="665" type="line"/>
      <point x="58" y="30" type="line"/>
    </contour>
    <contour>
      <point x="840" y="231" type="line"/>
      <point x="840" y="49" type="line"/>
      <point x="451" y="49" type="line"/>
      <point x="451" y="231" type="line"/>
    </contour>
    <contour>
      <point x="383" y="49" type="line"/>
      <point x="77" y="49" type="line"/>
      <point x="77" y="646" type="line"/>
      <point x="383" y="646" type="line"/>
    </contour>
    <contour>
      <point x="517" y="-317" type="qcurve"/>
      <point x="426" y="-317" type="line"/>
      <point x="444" y="-205" type="line"/>
      <point x="438" y="-201"/>
      <point x="437" y="-200" type="qcurve"/>
      <point x="411" y="-175"/>
      <point x="402" y="-122"/>
      <point x="425" y="-78"/>
      <point x="474" y="-51"/>
      <point x="506" y="-51" type="qcurve" smooth="yes"/>
      <point x="546" y="-51"/>
      <point x="603" y="-101"/>
      <point x="605" y="-137" type="qcurve" smooth="yes"/>
      <point x="606" y="-165"/>
      <point x="579" y="-228"/>
      <point x="562" y="-255" type="qcurve" smooth="yes"/>
      <point x="543" y="-287"/>
    </contour>
    <contour>
      <point x="463" y="-195" type="line"/>
      <point x="453" y="-186" type="line"/>
      <point x="454" y="-186" type="line"/>
      <point x="440" y="-172"/>
      <point x="429" y="-145"/>
      <point x="429" y="-132" type="qcurve" smooth="yes"/>
      <point x="429" y="-105"/>
      <point x="472" y="-67"/>
      <point x="507" y="-67" type="qcurve" smooth="yes"/>
      <point x="537" y="-67"/>
      <point x="582" y="-107"/>
      <point x="584" y="-136" type="qcurve"/>
      <point x="584" y="-157"/>
      <point x="565" y="-209"/>
      <point x="539" y="-257"/>
      <point x="514" y="-295"/>
      <point x="508" y="-302" type="qcurve"/>
      <point x="446" y="-302" type="line"/>
    </contour>
    <contour>
      <point x="634" y="-136" type="qcurve" smooth="yes"/>
      <point x="631" y="-91"/>
      <point x="596" y="-58" type="qcurve"/>
      <point x="558" y="-25"/>
      <point x="506" y="-25" type="qcurve" smooth="yes"/>
      <point x="480" y="-25"/>
      <point x="429" y="-42"/>
      <point x="411" y="-58" type="qcurve" smooth="yes"/>
      <point x="394" y="-74"/>
      <point x="379" y="-116"/>
      <point x="379" y="-135" type="qcurve"/>
      <point x="381" y="-171"/>
      <point x="408" y="-210"/>
      <point x="413" y="-215" type="qcurve"/>
      <point x="393" y="-344" type="line"/>
      <point x="527" y="-344" type="line"/>
      <point x="572" y="-295"/>
      <point x="616" y="-218"/>
      <point x="625" y="-191" type="qcurve" smooth="yes"/>
      <point x="636" y="-159"/>
    </contour>
  </outline>
</glyph>
<glyph name="Lcaron" format="2">
  <advance width="914"/>
  <unicode hex="013D"/>
  <outline>
    <contour>
      <point x="432" y="695" type="line"/>
      <point x="432" y="280" type="line"/>
      <point x="889" y="280" type="line"/>
      <point x="889" y="0" type="line"/>
      <point x="28" y="0" type="line"/>
      <point x="28" y="695" type="line"/>
    </contour>
    <contour>
      <point x="859" y="250" type="line"/>
      <point x="432" y="250" type="line"/>
      <point x="432" y="30" type="line"/>
      <point x="859" y="30" type="line"/>
    </contour>
    <contour>
      <point x="402" y="30" type="line"/>
      <point x="402" y="665" type="line"/>
      <point x="58" y="665" type="line"/>
      <point x="58" y="30" type="line"/>
    </contour>
    <contour>
      <point x="840" y="231" type="line"/>
      <point x="840" y="49" type="line"/>
      <point x="451" y="49" type="line"/>
      <point x="451" y="231" type="line"/>
    </contour>
    <contour>
      <point x="383" y="49" type="line"/>
      <point x="77" y="49" type="line"/>
      <point x="77" y="646" type="line"/>
      <point x="383" y="646" type="line"/>
    </contour>
    <contour>
      <point x="126" y="986" type="line"/>
      <point x="433" y="986" type="line"/>
      <point x="473" y="928" type="line"/>
      <point x="515" y="986" type="line"/>
      <point x="825" y="986" type="line"/>
      <point x="693" y="763" type="line"/>
      <point x="263" y="763" type="line"/>
    </contour>
    <contour>
      <point x="182" y="956" type="line"/>
      <point x="285" y="793" type="line"/>
      <point x="670" y="793" type="line"/>
      <point x="770" y="953" type="line"/>
      <point x="533" y="953" type="line"/>
      <point x="470" y="878" type="line"/>
      <point x="410" y="956" type="line"/>
    </contour>
    <contour>
      <point x="655" y="812" type="line"/>
      <point x="299" y="811" type="line"/>
      <point x="217" y="937" type="line"/>
      <point x="395" y="937" type="line"/>
      <point x="472" y="844" type="line"/>
      <point x="548" y="934" type="line"/>
      <point x="733" y="934" type="line"/>
    </contour>
  </outline>
</glyph>
<glyph name="lslash" format="2">
  <advance width="1003"/>
  <unicode hex="0142"/>
  <outline>
    <contour>
      <point x="670" y="409" type="line"/>
      <point x="524" y="345" type="line"/>
      <point x="524" y="280" type="line"/>
      <point x="981" y="280" type="line"/>
      <point x="981" y="0" type="line"/>
      <point x="120" y="0" type="line"/>
      <point x="120" y="176" type="line"/>
      <point x="20" y="131" type="line"/>
      <point x="20" y="334" type="line"/>
      <point x="120" y="375" type="line"/>
      <point x="120" y="695" type="line"/>
      <point x="524" y="695" type="line"/>
      <point x="524" y="553" type="line"/>
      <point x="670" y="618" type="line"/>
    </contour>
    <contour>
      <point x="951" y="250" type="line"/>
      <point x="524" y="250" type="line"/>
      <point x="524" y="30" type="line"/>
      <point x="951" y="30" type="line"/>
    </contour>
    <contour>
      <point x="494" y="30" type="line"/>
      <point x="494" y="335" type="line"/>
      <point x="150" y="187" type="line"/>
      <point x="150" y="30" type="line"/>
    </contour>
    <contour>
      <point x="634" y="426" type="line"/>
      <point x="634" y="563" type="line"/>
      <point x="53" y="316" type="line"/>
      <point x="53" y="184" type="line"/>
    </contour>
    <contour>
      <point x="494" y="665" type="line"/>
      <point x="150" y="665" type="line"/>
      <point x="150" y="387" type="line"/>
      <point x="494" y="523" type="line"/>
    </contour>
    <contour>
      <point x="932" y="231" type="line"/>
      <point x="932" y="49" type="line"/>
      <point x="543" y="49" type="line"/>
      <point x="543" y="231" type="line"/>
    </contour>
    <contour>
      <point x="169" y="49" type="line"/>
      <point x="169" y="175" type="line"/>
      <point x="475" y="307" type="line"/>
      <point x="475" y="49" type="line"/>
    </contour>
    <contour>
      <point x="72" y="306" type="line"/>
      <point x="615" y="536" type="line"/>
      <point x="615" y="437" type="line"/>
      <point x="72" y="212" type="line"/>
    </contour>
    <contour>
      <point x="169" y="646" type="line"/>
      <point x="475" y="646" type="line"/>
      <point x="475" y="542" type="line"/>
      <point x="169" y="418" type="line"/>
    </contour>
  </outline>
</glyph>
<glyph name="uni0145" format="2">
  <advance width="1208"/>
  <unicode hex="0145"/>
  <outline>
    <contour>
      <point x="777" y="695" type="line"/>
      <point x="1181" y="695" type="line"/>
      <point x="1181" y="0" type="line"/>
      <point x="787" y="0" type="line"/>
      <point x="433" y="314" type="line"/>
      <point x="433" y="0" type="line"/>
      <point x="29" y="0" type="line"/>
      <point x="29" y="695" type="line"/>
      <point x="424" y="695" type="line"/>
      <point x="777" y="380" type="line"/>
    </contour>
    <contour>
      <point x="403" y="340" type="line"/>
      <point x="59" y="646" type="line"/>
      <point x="59" y="30" type="line"/>
      <point x="403" y="30" type="line"/>
    </contour>
    <contour>
      <point x="1152" y="30" type="line"/>
      <point x="1152" y="332" type="line"/>
      <point x="787" y="332" type="line"/>
      <point x="413" y="665" type="line"/>
      <point x="84" y="665" type="line"/>
      <point x="798" y="30" type="line"/>
    </contour>
    <contour>
      <point x="807" y="665" type="line"/>
      <point x="807" y="362" type="line"/>
      <point x="1152" y="362" type="line"/>
      <point x="1152" y="665" type="line"/>
    </contour>
    <contour>
      <point x="384" y="49" type="line"/>
      <point x="78" y="49" type="line"/>
      <point x="78" y="603" type="line"/>
      <point x="120" y="565"/>
      <point x="195" y="500"/>
      <point x="268" y="435"/>
      <point x="342" y="369"/>
      <point x="384" y="332" type="qcurve"/>
    </contour>
    <contour>
      <point x="805" y="49" type="line"/>
      <point x="635" y="200"/>
      <point x="304" y="496"/>
      <point x="134" y="646" type="qcurve"/>
      <point x="406" y="646" type="line"/>
      <point x="780" y="313" type="line"/>
      <point x="1133" y="313" type="line"/>
      <point x="1133" y="49" type="line"/>
    </contour>
    <contour>
      <point x="1133" y="646" type="line"/>
      <point x="1133" y="381" type="line"/>
      <point x="826" y="381" type="line"/>
      <point x="826" y="646" type="line"/>
    </contour>
    <contour>
      <point x="601" y="-317" type="qcurve"/>
      <point x="510" y="-317" type="line"/>
      <point x="528" y="-205" type="line"/>
      <point x="522" y="-201"/>
      <point x="521" y="-200" type="qcurve"/>
      <point x="495" y="-175"/>
      <point x="486" y="-122"/>
      <point x="509" y="-78"/>
      <point x="558" y="-51"/>
      <point x="590" y="-51" type="qcurve" smooth="yes"/>
      <point x="630" y="-51"/>
      <point x="687" y="-101"/>
      <point x="689" y="-137" type="qcurve" smooth="yes"/>
      <point x="690" y="-165"/>
      <point x="663" y="-228"/>
      <point x="646" y="-255" type="qcurve" smooth="yes"/>
      <point x="627" y="-287"/>
    </contour>
    <contour>
      <point x="547" y="-195" type="line"/>
      <point x="537" y="-186" type="line"/>
      <point x="538" y="-186" type="line"/>
      <point x="524" y="-172"/>
      <point x="513" y="-145"/>
      <point x="513" y="-132" type="qcurve" smooth="yes"/>
      <point x="513" y="-105"/>
      <point x="556" y="-67"/>
      <point x="591" y="-67" type="qcurve" smooth="yes"/>
      <point x="621" y="-67"/>
      <point x="666" y="-107"/>
      <point x="668" y="-136" type="qcurve"/>
      <point x="668" y="-157"/>
      <point x="649" y="-209"/>
      <point x="623" y="-257"/>
      <point x="598" y="-295"/>
      <point x="592" y="-302" type="qcurve"/>
      <point x="530" y="-302" type="line"/>
    </contour>
    <contour>
      <point x="718" y="-136" type="qcurve" smooth="yes"/>
      <point x="715" y="-91"/>
      <point x="680" y="-58" type="qcurve"/>
      <point x="642" y="-25"/>
      <point x="590" y="-25" type="qcurve" smooth="yes"/>
      <point x="564" y="-25"/>
      <point x="513" y="-42"/>
      <point x="495" y="-58" type="qcurve" smooth="yes"/>
      <point x="478" y="-74"/>
      <point x="463" y="-116"/>
      <point x="463" y="-135" type="qcurve"/>
      <point x="465" y="-171"/>
      <point x="492" y="-210"/>
      <point x="497" y="-215" type="qcurve"/>
      <point x="477" y="-344" type="line"/>
      <point x="611" y="-344" type="line"/>
      <point x="656" y="-295"/>
      <point x="700" y="-218"/>
      <point x="709" y="-191" type="qcurve" smooth="yes"/>
      <point x="720" y="-159"/>
    </contour>
  </outline>
</glyph>
<glyph name="uni0156" format="2">
  <advance width="1209"/>
  <unicode hex="0156"/>
  <outline>
    <contour>
      <point x="1180" y="473" type="qcurve" smooth="yes"/>
      <point x="1180" y="431"/>
      <point x="1150" y="355"/>
      <point x="1098" y="296"/>
      <point x="1028" y="258"/>
      <point x="987" y="252" type="qcurve"/>
      <point x="1197" y="0" type="line"/>
      <point x="784" y="0" type="line"/>
      <point x="432" y="423" type="line"/>
      <point x="432" y="0" type="line"/>
      <point x="28" y="0" type="line"/>
      <point x="28" y="695" type="line"/>
      <point x="972" y="695" type="line"/>
      <point x="1015" y="692"/>
      <point x="1091" y="655"/>
      <point x="1148" y="595"/>
      <point x="1180" y="517"/>
    </contour>
    <contour>
      <point x="1150" y="473" type="qcurve" smooth="yes"/>
      <point x="1150" y="513"/>
      <point x="1119" y="583"/>
      <point x="1067" y="635"/>
      <point x="997" y="665"/>
      <point x="957" y="665" type="qcurve" smooth="yes"/>
      <point x="917" y="665"/>
      <point x="847" y="635"/>
      <point x="794" y="583"/>
      <point x="764" y="513"/>
      <point x="764" y="473" type="qcurve" smooth="yes"/>
      <point x="764" y="433"/>
      <point x="794" y="363"/>
      <point x="847" y="310"/>
      <point x="917" y="280"/>
      <point x="957" y="280" type="qcurve" smooth="yes"/>
      <point x="997" y="280"/>
      <point x="1067" y="310"/>
      <point x="1119" y="363"/>
      <point x="1150" y="433"/>
    </contour>
    <contour>
      <point x="269" y="665" type="line"/>
      <point x="402" y="506" type="line"/>
      <point x="402" y="665" type="line"/>
    </contour>
    <contour>
      <point x="402" y="459" type="line"/>
      <point x="230" y="665" type="line"/>
      <point x="58" y="665" type="line"/>
      <point x="58" y="30" type="line"/>
      <point x="402" y="30" type="line"/>
    </contour>
    <contour>
      <point x="590" y="280" type="line"/>
      <point x="846" y="280" type="line"/>
      <point x="795" y="309"/>
      <point x="734" y="410"/>
      <point x="734" y="473" type="qcurve" smooth="yes"/>
      <point x="734" y="535"/>
      <point x="795" y="636"/>
      <point x="846" y="665" type="qcurve"/>
      <point x="432" y="665" type="line"/>
      <point x="432" y="470" type="line"/>
    </contour>
    <contour>
      <point x="1133" y="30" type="line"/>
      <point x="950" y="250" type="line"/>
      <point x="615" y="250" type="line"/>
      <point x="798" y="30" type="line"/>
    </contour>
    <contour>
      <point x="1131" y="473" type="qcurve" smooth="yes"/>
      <point x="1131" y="437"/>
      <point x="1104" y="374"/>
      <point x="1056" y="326"/>
      <point x="993" y="299"/>
      <point x="957" y="299" type="qcurve" smooth="yes"/>
      <point x="921" y="299"/>
      <point x="858" y="326"/>
      <point x="810" y="374"/>
      <point x="783" y="437"/>
      <point x="783" y="473" type="qcurve" smooth="yes"/>
      <point x="783" y="509"/>
      <point x="810" y="572"/>
      <point x="858" y="619"/>
      <point x="921" y="646"/>
      <point x="957" y="646" type="qcurve" smooth="yes"/>
      <point x="993" y="646"/>
      <point x="1056" y="619"/>
      <point x="1104" y="572"/>
      <point x="1131" y="509"/>
    </contour>
    <contour>
      <point x="383" y="646" type="line"/>
      <point x="383" y="560" type="line"/>
      <point x="359" y="589"/>
      <point x="327" y="626"/>
      <point x="310" y="646" type="qcurve"/>
    </contour>
    <contour>
      <point x="383" y="49" type="line"/>
      <point x="77" y="49" type="line"/>
      <point x="77" y="646" type="line"/>
      <point x="221" y="646" type="line"/>
      <point x="383" y="451" type="line"/>
    </contour>
    <contour>
      <point x="451" y="477" type="line"/>
      <point x="451" y="646" type="line"/>
      <point x="788" y="646" type="line"/>
      <point x="753" y="613"/>
      <point x="715" y="526"/>
      <point x="715" y="473" type="qcurve" smooth="yes"/>
      <point x="715" y="419"/>
      <point x="753" y="332"/>
      <point x="788" y="299" type="qcurve"/>
      <point x="599" y="299" type="line"/>
    </contour>
    <contour>
      <point x="806" y="49" type="line"/>
      <point x="766" y="97"/>
      <point x="694" y="184"/>
      <point x="656" y="231" type="qcurve"/>
      <point x="942" y="231" type="line"/>
      <point x="982" y="183"/>
      <point x="1054" y="96"/>
      <point x="1092" y="49" type="qcurve"/>
    </contour>
    <contour>
      <point x="570" y="-317" type="qcurve"/>
      <point x="479" y="-317" type="line"/>
      <point x="497" y="-205" type="line"/>
      <point x="491" y="-201"/>
      <point x="490" y="-200" type="qcurve"/>
      <point x="464" y="-175"/>
      <point x="455" y="-122"/>
      <point x="478" y="-78"/>
      <point x="527" y="-51"/>
      <point x="559" y="-51" type="qcurve" smooth="yes"/>
      <point x="599" y="-51"/>
      <point x="656" y="-101"/>
      <point x="658" y="-137" type="qcurve" smooth="yes"/>
      <point x="659" y="-165"/>
      <point x="632" y="-228"/>
      <point x="615" y="-255" type="qcurve" smooth="yes"/>
      <point x="596" y="-287"/>
    </contour>
    <contour>
      <point x="516" y="-195" type="line"/>
      <point x="506" y="-186" type="line"/>
      <point x="507" y="-186" type="line"/>
      <point x="493" y="-172"/>
      <point x="482" y="-145"/>
      <point x="482" y="-132" type="qcurve" smooth="yes"/>
      <point x="482" y="-105"/>
      <point x="525" y="-67"/>
      <point x="560" y="-67" type="qcurve" smooth="yes"/>
      <point x="590" y="-67"/>
      <point x="635" y="-107"/>
      <point x="637" y="-136" type="qcurve"/>
      <point x="637" y="-157"/>
      <point x="618" y="-209"/>
      <point x="592" y="-257"/>
      <point x="567" y="-295"/>
      <point x="561" y="-302" type="qcurve"/>
      <point x="499" y="-302" type="line"/>
    </contour>
    <contour>
      <point x="687" y="-136" type="qcurve" smooth="yes"/>
      <point x="684" y="-91"/>
      <point x="649" y="-58" type="qcurve"/>
      <point x="611" y="-25"/>
      <point x="559" y="-25" type="qcurve" smooth="yes"/>
      <point x="533" y="-25"/>
      <point x="482" y="-42"/>
      <point x="464" y="-58" type="qcurve" smooth="yes"/>
      <point x="447" y="-74"/>
      <point x="432" y="-116"/>
      <point x="432" y="-135" type="qcurve"/>
      <point x="434" y="-171"/>
      <point x="461" y="-210"/>
      <point x="466" y="-215" type="qcurve"/>
      <point x="446" y="-344" type="line"/>
      <point x="580" y="-344" type="line"/>
      <point x="625" y="-295"/>
      <point x="669" y="-218"/>
      <point x="678" y="-191" type="qcurve" smooth="yes"/>
      <point x="689" y="-159"/>
    </contour>
  </outline>
</glyph>
<glyph name="uni0162" format="2">
  <advance width="1112"/>
  <unicode hex="0162"/>
  <outline>
    <contour>
      <point x="1092" y="695" type="line"/>
      <point x="1092" y="416" type="line"/>
      <point x="759" y="416" type="line"/>
      <point x="759" y="0" type="line"/>
      <point x="355" y="0" type="line"/>
      <point x="355" y="416" type="line"/>
      <point x="23" y="416" type="line"/>
      <point x="23" y="695" type="line"/>
    </contour>
    <contour>
      <point x="53" y="446" type="line"/>
      <point x="542" y="446" type="line"/>
      <point x="542" y="665" type="line"/>
      <point x="53" y="665" type="line"/>
    </contour>
    <contour>
      <point x="729" y="30" type="line"/>
      <point x="729" y="416" type="line"/>
      <point x="385" y="416" type="line"/>
      <point x="385" y="30" type="line"/>
    </contour>
    <contour>
      <point x="1062" y="665" type="line"/>
      <point x="572" y="665" type="line"/>
      <point x="572" y="446" type="line"/>
      <point x="1062" y="446" type="line"/>
    </contour>
    <contour>
      <point x="72" y="465" type="line"/>
      <point x="72" y="646" type="line"/>
      <point x="523" y="646" type="line"/>
      <point x="523" y="465" type="line"/>
    </contour>
    <contour>
      <point x="710" y="49" type="line"/>
      <point x="404" y="49" type="line"/>
      <point x="404" y="397" type="line"/>
      <point x="710" y="397" type="line"/>
    </contour>
    <contour>
      <point x="1043" y="465" type="line"/>
      <point x="591" y="465" type="line"/>
      <point x="591" y="646" type="line"/>
      <point x="1043" y="646" type="line"/>
    </contour>
    <contour>
      <point x="570" y="-317" type="qcurve"/>
      <point x="479" y="-317" type="line"/>
      <point x="497" y="-205" type="line"/>
      <point x="491" y="-201"/>
      <point x="490" y="-200" type="qcurve"/>
      <point x="464" y="-175"/>
      <point x="455" y="-122"/>
      <point x="478" y="-78"/>
      <point x="527" y="-51"/>
      <point x="559" y="-51" type="qcurve" smooth="yes"/>
      <point x="599" y="-51"/>
      <point x="656" y="-101"/>
      <point x="658" y="-137" type="qcurve" smooth="yes"/>
      <point x="659" y="-165"/>
      <point x="632" y="-228"/>
      <point x="615" y="-255" type="qcurve" smooth="yes"/>
      <point x="596" y="-287"/>
    </contour>
    <contour>
      <point x="516" y="-195" type="line"/>
      <point x="506" y="-186" type="line"/>
      <point x="507" y="-186" type="line"/>
      <point x="493" y="-172"/>
      <point x="482" y="-145"/>
      <point x="482" y="-132" type="qcurve" smooth="yes"/>
      <point x="482" y="-105"/>
      <point x="525" y="-67"/>
      <point x="560" y="-67" type="qcurve" smooth="yes"/>
      <point x="590" y="-67"/>
      <point x="635" y="-107"/>
      <point x="637" y="-136" type="qcurve"/>
      <point x="637" y="-157"/>
      <point x="618" y="-209"/>
      <point x="592" y="-257"/>
      <point x="567" y="-295"/>
      <point x="561" y="-302" type="qcurve"/>
      <point x="499" y="-302" type="line"/>
    </contour>
    <contour>
      <point x="687" y="-136" type="qcurve" smooth="yes"/>
      <point x="684" y="-91"/>
      <point x="649" y="-58" type="qcurve"/>
      <point x="611" y="-25"/>
      <point x="559" y="-25" type="qcurve" smooth="yes"/>
      <point x="533" y="-25"/>
      <point x="482" y="-42"/>
      <point x="464" y="-58" type="qcurve" smooth="yes"/>
      <point x="447" y="-74"/>
      <point x="432" y="-116"/>
      <point x="432" y="-135" type="qcurve"/>
      <point x="434" y="-171"/>
      <point x="461" y="-210"/>
      <point x="466" y="-215" type="qcurve"/>
      <point x="446" y="-344" type="line"/>
      <point x="580" y="-344" type="line"/>
      <point x="625" y="-295"/>
      <point x="669" y="-218"/>
      <point x="678" y="-191" type="qcurve" smooth="yes"/>
      <point x="689" y="-159"/>
    </contour>
  </outline>
</glyph>
<glyph name="Tcaron" format="2">
  <advance width="1112"/>
  <unicode hex="0164"/>
  <outline>
    <contour>
      <point x="1092" y="695" type="line"/>
      <point x="1092" y="416" type="line"/>
      <point x="759" y="416" type="line"/>
      <point x="759" y="0" type="line"/>
      <point x="355" y="0" type="line"/>
      <point x="355" y="416" type="line"/>
      <point x="23" y="416" type="line"/>
      <point x="23" y="695" type="line"/>
    </contour>
    <contour>
      <point x="53" y="446" type="line"/>
      <point x="542" y="446" type="line"/>
      <point x="542" y="665" type="line"/>
      <point x="53" y="665" type="line"/>
    </contour>
    <contour>
      <point x="729" y="30" type="line"/>
      <point x="729" y="416" type="line"/>
      <point x="385" y="416" type="line"/>
      <point x="385" y="30" type="line"/>
    </contour>
    <contour>
      <point x="1062" y="665" type="line"/>
      <point x="572" y="665" type="line"/>
      <point x="572" y="446" type="line"/>
      <point x="1062" y="446" type="line"/>
    </contour>
    <contour>
      <point x="72" y="465" type="line"/>
      <point x="72" y="646" type="line"/>
      <point x="523" y="646" type="line"/>
      <point x="523" y="465" type="line"/>
    </contour>
    <contour>
      <point x="710" y="49" type="line"/>
      <point x="404" y="49" type="line"/>
      <point x="404" y="397" type="line"/>
      <point x="710" y="397" type="line"/>
    </contour>
    <contour>
      <point x="1043" y="465" type="line"/>
      <point x="591" y="465" type="line"/>
      <point x="591" y="646" type="line"/>
      <point x="1043" y="646" type="line"/>
    </contour>
    <contour>
      <point x="168" y="986" type="line"/>
      <point x="524" y="986" type="line"/>
      <point x="564" y="906" type="line"/>
      <point x="606" y="986" type="line"/>
      <point x="957" y="986" type="line"/>
      <point x="825" y="724" type="line"/>
      <point x="305" y="724" type="line"/>
    </contour>
    <contour>
      <point x="224" y="956" type="line"/>
      <point x="323" y="756" type="line"/>
      <point x="802" y="754" type="line"/>
      <point x="902" y="953" type="line"/>
      <point x="624" y="953" type="line"/>
      <point x="561" y="830" type="line"/>
      <point x="501" y="956" type="line"/>
    </contour>
    <contour>
      <point x="787" y="773" type="line"/>
      <point x="338" y="775" type="line"/>
      <point x="256" y="937" type="line"/>
      <point x="486" y="937" type="line"/>
      <point x="563" y="786" type="line"/>
      <point x="639" y="934" type="line"/>
      <point x="870" y="934" type="line"/>
    </contour>
  </outline>
</glyph>
<glyph name="uring" format="2">
  <advance width="1118"/>
  <unicode hex="016F"/>
  <outline>
    <contour>
      <point x="732" y="695" type="line"/>
      <point x="1095" y="695" type="line"/>
      <point x="1095" y="182" type="line" smooth="yes"/>
      <point x="1095" y="146"/>
      <point x="1069" y="83"/>
      <point x="1024" y="34"/>
      <point x="963" y="3"/>
      <point x="928" y="0" type="qcurve"/>
      <point x="192" y="1" type="line"/>
      <point x="157" y="4"/>
      <point x="97" y="35"/>
      <point x="52" y="83"/>
      <point x="26" y="146"/>
      <point x="26" y="182" type="qcurve" smooth="yes"/>
      <point x="26" y="695" type="line"/>
      <point x="388" y="695" type="line"/>
      <point x="388" y="363" type="line"/>
      <point x="732" y="363" type="line"/>
    </contour>
    <contour>
      <point x="56" y="182" type="line" smooth="yes"/>
      <point x="56" y="150"/>
      <point x="80" y="95"/>
      <point x="121" y="54"/>
      <point x="176" y="30"/>
      <point x="207" y="30" type="qcurve" smooth="yes"/>
      <point x="238" y="30"/>
      <point x="293" y="54"/>
      <point x="334" y="95"/>
      <point x="358" y="150"/>
      <point x="358" y="182" type="qcurve" smooth="yes"/>
      <point x="358" y="665" type="line"/>
      <point x="56" y="665" type="line"/>
    </contour>
    <contour>
      <point x="814" y="30" type="line"/>
      <point x="777" y="55"/>
      <point x="732" y="134"/>
      <point x="732" y="182" type="qcurve" smooth="yes"/>
      <point x="732" y="333" type="line"/>
      <point x="388" y="333" type="line"/>
      <point x="388" y="182" type="line" smooth="yes"/>
      <point x="388" y="134"/>
      <point x="344" y="55"/>
      <point x="307" y="30" type="qcurve"/>
    </contour>
    <contour>
      <point x="762" y="182" type="line" smooth="yes"/>
      <point x="762" y="150"/>
      <point x="786" y="95"/>
      <point x="827" y="54"/>
      <point x="882" y="30"/>
      <point x="913" y="30" type="qcurve" smooth="yes"/>
      <point x="944" y="30"/>
      <point x="1000" y="54"/>
      <point x="1041" y="95"/>
      <point x="1065" y="150"/>
      <point x="1065" y="182" type="qcurve" smooth="yes"/>
      <point x="1065" y="665" type="line"/>
      <point x="762" y="665" type="line"/>
    </contour>
    <contour>
      <point x="75" y="182" type="qcurve" smooth="yes"/>
      <point x="75" y="646" type="line"/>
      <point x="339" y="646" type="line"/>
      <point x="339" y="182" type="line" smooth="yes"/>
      <point x="339" y="154"/>
      <point x="318" y="106"/>
      <point x="282" y="70"/>
      <point x="234" y="49"/>
      <point x="207" y="49" type="qcurve" smooth="yes"/>
      <point x="180" y="49"/>
      <point x="132" y="70"/>
      <point x="96" y="106"/>
      <point x="75" y="154"/>
    </contour>
    <contour>
      <point x="358" y="49" type="line"/>
      <point x="384" y="76"/>
      <point x="407" y="141"/>
      <point x="407" y="182" type="qcurve" smooth="yes"/>
      <point x="407" y="314" type="line"/>
      <point x="713" y="314" type="line"/>
      <point x="713" y="182" type="line" smooth="yes"/>
      <point x="713" y="148"/>
      <point x="744" y="75"/>
      <point x="763" y="49" type="qcurve"/>
    </contour>
    <contour>
      <point x="781" y="646" type="line"/>
      <point x="1046" y="646" type="line"/>
      <point x="1046" y="182" type="line" smooth="yes"/>
      <point x="1046" y="154"/>
      <point x="1025" y="106"/>
      <point x="989" y="70"/>
      <point x="940" y="49"/>
      <point x="913" y="49" type="qcurve" smooth="yes"/>
      <point x="886" y="49"/>
      <point x="838" y="70"/>
      <point x="802" y="106"/>
      <point x="781" y="154"/>
      <point x="781" y="182" type="qcurve" smooth="yes"/>
    </contour>
    <contour>
      <point x="618" y="738" type="qcurve"/>
      <point x="587" y="725"/>
      <point x="561" y="725" type="qcurve" smooth="yes"/>
      <point x="545" y="725" type="line" smooth="yes"/>
      <point x="530" y="725"/>
      <point x="503" y="732"/>
      <point x="489" y="738" type="qcurve" smooth="yes"/>
      <point x="451" y="756"/>
      <point x="399" y="829"/>
      <point x="399" y="876" type="qcurve" smooth="yes"/>
      <point x="399" y="907"/>
      <point x="423" y="962"/>
      <point x="463" y="1003"/>
      <point x="516" y="1027"/>
      <point x="545" y="1027" type="qcurve" smooth="yes"/>
      <point x="561" y="1027" type="line" smooth="yes"/>
      <point x="588" y="1027"/>
      <point x="639" y="1003"/>
      <point x="680" y="962"/>
      <point x="705" y="907"/>
      <point x="705" y="876" type="qcurve" smooth="yes"/>
      <point x="705" y="829"/>
      <point x="655" y="756"/>
    </contour>
    <contour>
      <point x="425" y="875" type="qcurve" smooth="yes"/>
      <point x="425" y="850"/>
      <point x="444" y="805"/>
      <point x="476" y="772"/>
      <point x="519" y="753"/>
      <point x="543" y="753" type="qcurve" smooth="yes"/>
      <point x="559" y="753" type="line" smooth="yes"/>
      <point x="583" y="753"/>
      <point x="626" y="772"/>
      <point x="658" y="805"/>
      <point x="677" y="850"/>
      <point x="677" y="875" type="qcurve" smooth="yes"/>
      <point x="677" y="900"/>
      <point x="658" y="944"/>
      <point x="626" y="977"/>
      <point x="583" y="997"/>
      <point x="559" y="997" type="qcurve" smooth="yes"/>
      <point x="543" y="997" type="line" smooth="yes"/>
      <point x="519" y="997"/>
      <point x="476" y="977"/>
      <point x="444" y="944"/>
      <point x="425" y="900"/>
    </contour>
    <contour>
      <point x="540" y="778" type="line" smooth="yes"/>
      <point x="520" y="778"/>
      <point x="486" y="794"/>
      <point x="459" y="820"/>
      <point x="444" y="855"/>
      <point x="444" y="875" type="qcurve" smooth="yes"/>
      <point x="444" y="895"/>
      <point x="459" y="932"/>
      <point x="486" y="960"/>
      <point x="520" y="976"/>
      <point x="540" y="976" type="qcurve" smooth="yes"/>
      <point x="564" y="976" type="line" smooth="yes"/>
      <point x="584" y="976"/>
      <point x="619" y="960"/>
      <point x="645" y="932"/>
      <point x="660" y="895"/>
      <point x="660" y="875" type="qcurve" smooth="yes"/>
      <point x="660" y="855"/>
      <point x="644" y="820"/>
      <point x="618" y="794"/>
      <point x="583" y="778"/>
      <point x="564" y="778" type="qcurve" smooth="yes"/>
    </contour>
    <contour>
      <point x="550" y="842" type="line" smooth="yes"/>
      <point x="537" y="842"/>
      <point x="519" y="861"/>
      <point x="519" y="875" type="qcurve" smooth="yes"/>
      <point x="519" y="889"/>
      <point x="537" y="910"/>
      <point x="550" y="910" type="qcurve" smooth="yes"/>
      <point x="558" y="910" type="line" smooth="yes"/>
      <point x="571" y="910"/>
      <point x="589" y="889"/>
      <point x="589" y="875" type="qcurve" smooth="yes"/>
      <point x="589" y="861"/>
      <point x="571" y="842"/>
      <point x="558" y="842" type="qcurve" smooth="yes"/>
    </contour>
    <contour>
      <point x="499" y="877" type="qcurve" smooth="yes"/>
      <point x="499" y="854"/>
      <point x="530" y="823"/>
      <point x="551" y="823" type="qcurve" smooth="yes"/>
      <point x="558" y="823" type="line" smooth="yes"/>
      <point x="580" y="823"/>
      <point x="610" y="854"/>
      <point x="610" y="877" type="qcurve" smooth="yes"/>
      <point x="610" y="899"/>
      <point x="580" y="931"/>
      <point x="558" y="931" type="qcurve" smooth="yes"/>
      <point x="551" y="931" type="line" smooth="yes"/>
      <point x="530" y="931"/>
      <point x="499" y="899"/>
    </contour>
  </outline>
</glyph>
<glyph name="uhungarumlaut" format="2">
  <advance width="1118"/>
  <unicode hex="0171"/>
  <outline>
    <contour>
      <point x="217" y="986" type="line"/>
      <point x="554" y="986" type="line"/>
      <point x="498" y="724" type="line"/>
      <point x="161" y="724" type="line"/>
    </contour>
    <contour>
      <point x="475" y="754" type="line"/>
      <point x="517" y="953" type="line"/>
      <point x="240" y="953" type="line"/>
      <point x="198" y="754" type="line"/>
    </contour>
    <contour>
      <point x="460" y="773" type="line"/>
      <point x="221" y="773" type="line"/>
      <point x="255" y="934" type="line"/>
      <point x="494" y="934" type="line"/>
    </contour>
    <contour>
      <point x="621" y="986" type="line"/>
      <point x="958" y="986" type="line"/>
      <point x="902" y="724" type="line"/>
      <point x="565" y="724" type="line"/>
    </contour>
    <contour>
      <point x="879" y="754" type="line"/>
      <point x="921" y="953" type="line"/>
      <point x="644" y="953" type="line"/>
      <point x="602" y="754" type="line"/>
    </contour>
    <contour>
      <point x="864" y="773" type="line"/>
      <point x="625" y="773" type="line"/>
      <point x="659" y="934" type="line"/>
      <point x="898" y="934" type="line"/>
    </contour>
    <contour>
      <point x="732" y="695" type="line"/>
      <point x="1095" y="695" type="line"/>
      <point x="1095" y="182" type="line" smooth="yes"/>
      <point x="1095" y="146"/>
      <point x="1069" y="83"/>
      <point x="1024" y="34"/>
      <point x="963" y="3"/>
      <point x="928" y="0" type="qcurve"/>
      <point x="192" y="1" type="line"/>
      <point x="157" y="4"/>
      <point x="97" y="35"/>
      <point x="52" y="83"/>
      <point x="26" y="146"/>
      <point x="26" y="182" type="qcurve" smooth="yes"/>
      <point x="26" y="695" type="line"/>
      <point x="388" y="695" type="line"/>
      <point x="388" y="363" type="line"/>
      <point x="732" y="363" type="line"/>
    </contour>
    <contour>
      <point x="56" y="182" type="line" smooth="yes"/>
      <point x="56" y="150"/>
      <point x="80" y="95"/>
      <point x="121" y="54"/>
      <point x="176" y="30"/>
      <point x="207" y="30" type="qcurve" smooth="yes"/>
      <point x="238" y="30"/>
      <point x="293" y="54"/>
      <point x="334" y="95"/>
      <point x="358" y="150"/>
      <point x="358" y="182" type="qcurve" smooth="yes"/>
      <point x="358" y="665" type="line"/>
      <point x="56" y="665" type="line"/>
    </contour>
    <contour>
      <point x="814" y="30" type="line"/>
      <point x="777" y="55"/>
      <point x="732" y="134"/>
      <point x="732" y="182" type="qcurve" smooth="yes"/>
      <point x="732" y="333" type="line"/>
      <point x="388" y="333" type="line"/>
      <point x="388" y="182" type="line" smooth="yes"/>
      <point x="388" y="134"/>
      <point x="344" y="55"/>
      <point x="307" y="30" type="qcurve"/>
    </contour>
    <contour>
      <point x="762" y="182" type="line" smooth="yes"/>
      <point x="762" y="150"/>
      <point x="786" y="95"/>
      <point x="827" y="54"/>
      <point x="882" y="30"/>
      <point x="913" y="30" type="qcurve" smooth="yes"/>
      <point x="944" y="30"/>
      <point x="1000" y="54"/>
      <point x="1041" y="95"/>
      <point x="1065" y="150"/>
      <point x="1065" y="182" type="qcurve" smooth="yes"/>
      <point x="1065" y="665" type="line"/>
      <point x="762" y="665" type="line"/>
    </contour>
    <contour>
      <point x="75" y="182" type="qcurve" smooth="yes"/>
      <point x="75" y="646" type="line"/>
      <point x="339" y="646" type="line"/>
      <point x="339" y="182" type="line" smooth="yes"/>
      <point x="339" y="154"/>
      <point x="318" y="106"/>
      <point x="282" y="70"/>
      <point x="234" y="49"/>
      <point x="207" y="49" type="qcurve" smooth="yes"/>
      <point x="180" y="49"/>
      <point x="132" y="70"/>
      <point x="96" y="106"/>
      <point x="75" y="154"/>
    </contour>
    <contour>
      <point x="358" y="49" type="line"/>
      <point x="384" y="76"/>
      <point x="407" y="141"/>
      <point x="407" y="182" type="qcurve" smooth="yes"/>
      <point x="407" y="314" type="line"/>
      <point x="713" y="314" type="line"/>
      <point x="713" y="182" type="line" smooth="yes"/>
      <point x="713" y="148"/>
      <point x="744" y="75"/>
      <point x="763" y="49" type="qcurve"/>
    </contour>
    <contour>
      <point x="781" y="646" type="line"/>
      <point x="1046" y="646" type="line"/>
      <point x="1046" y="182" type="line" smooth="yes"/>
      <point x="1046" y="154"/>
      <point x="1025" y="106"/>
      <point x="989" y="70"/>
      <point x="940" y="49"/>
      <point x="913" y="49" type="qcurve" smooth="yes"/>
      <point x="886" y="49"/>
      <point x="838" y="70"/>
      <point x="802" y="106"/>
      <point x="781" y="154"/>
      <point x="781" y="182" type="qcurve" smooth="yes"/>
    </contour>
  </outline>
</glyph>
<glyph name="ycircumflex" format="2">
  <advance width="1114"/>
  <unicode hex="0177"/>
  <outline>
    <contour>
      <point x="556" y="863" type="line"/>
      <point x="527" y="724" type="line"/>
      <point x="190" y="724" type="line"/>
      <point x="246" y="986" type="line"/>
      <point x="867" y="986" type="line"/>
      <point x="923" y="724" type="line"/>
      <point x="586" y="724" type="line"/>
    </contour>
    <contour>
      <point x="504" y="757" type="line"/>
      <point x="541" y="934" type="line"/>
      <point x="571" y="934" type="line"/>
      <point x="609" y="757" type="line"/>
      <point x="886" y="757" type="line"/>
      <point x="844" y="956" type="line"/>
      <point x="269" y="956" type="line"/>
      <point x="227" y="757" type="line"/>
    </contour>
    <contour>
      <point x="863" y="776" type="line"/>
      <point x="624" y="776" type="line"/>
      <point x="590" y="937" type="line"/>
      <point x="829" y="937" type="line"/>
    </contour>
    <contour>
      <point x="284" y="937" type="line"/>
      <point x="523" y="937" type="line"/>
      <point x="489" y="776" type="line"/>
      <point x="250" y="776" type="line"/>
    </contour>
    <contour>
      <point x="1092" y="695" type="line"/>
      <point x="1092" y="431" type="line" smooth="yes"/>
      <point x="1092" y="395"/>
      <point x="1066" y="332"/>
      <point x="1021" y="284"/>
      <point x="961" y="253"/>
      <point x="926" y="250" type="qcurve"/>
      <point x="760" y="250" type="line"/>
      <point x="760" y="0" type="line"/>
      <point x="356" y="0" type="line"/>
      <point x="356" y="250" type="line"/>
      <point x="190" y="250" type="line"/>
      <point x="155" y="253"/>
      <point x="95" y="284"/>
      <point x="50" y="332"/>
      <point x="24" y="395"/>
      <point x="24" y="431" type="qcurve" smooth="yes"/>
      <point x="24" y="695" type="line"/>
    </contour>
    <contour>
      <point x="54" y="431" type="line" smooth="yes"/>
      <point x="54" y="400"/>
      <point x="78" y="345"/>
      <point x="118" y="304"/>
      <point x="173" y="280"/>
      <point x="205" y="280" type="qcurve" smooth="yes"/>
      <point x="236" y="280"/>
      <point x="291" y="304"/>
      <point x="332" y="345"/>
      <point x="356" y="400"/>
      <point x="356" y="431" type="qcurve" smooth="yes"/>
      <point x="356" y="665" type="line"/>
      <point x="54" y="665" type="line"/>
    </contour>
    <contour>
      <point x="730" y="250" type="line"/>
      <point x="386" y="250" type="line"/>
      <point x="386" y="30" type="line"/>
      <point x="730" y="30" type="line"/>
    </contour>
    <contour>
      <point x="812" y="280" type="line"/>
      <point x="775" y="304"/>
      <point x="730" y="383"/>
      <point x="730" y="431" type="qcurve" smooth="yes"/>
      <point x="730" y="665" type="line"/>
      <point x="386" y="665" type="line"/>
      <point x="386" y="431" type="line" smooth="yes"/>
      <point x="386" y="383"/>
      <point x="342" y="304"/>
      <point x="304" y="280" type="qcurve"/>
    </contour>
    <contour>
      <point x="1063" y="665" type="line"/>
      <point x="760" y="665" type="line"/>
      <point x="760" y="431" type="line" smooth="yes"/>
      <point x="760" y="400"/>
      <point x="784" y="345"/>
      <point x="825" y="304"/>
      <point x="880" y="280"/>
      <point x="911" y="280" type="qcurve" smooth="yes"/>
      <point x="942" y="280"/>
      <point x="998" y="304"/>
      <point x="1039" y="345"/>
      <point x="1063" y="400"/>
      <point x="1063" y="431" type="qcurve" smooth="yes"/>
    </contour>
    <contour>
      <point x="73" y="431" type="qcurve" smooth="yes"/>
      <point x="73" y="646" type="line"/>
      <point x="337" y="646" type="line"/>
      <point x="337" y="431" type="line" smooth="yes"/>
      <point x="337" y="404"/>
      <point x="316" y="356"/>
      <point x="280" y="320"/>
      <point x="232" y="299"/>
      <point x="205" y="299" type="qcurve" smooth="yes"/>
      <point x="178" y="299"/>
      <point x="130" y="320"/>
      <point x="94" y="356"/>
      <point x="73" y="404"/>
    </contour>
    <contour>
      <point x="711" y="49" type="line"/>
      <point x="405" y="49" type="line"/>
      <point x="405" y="231" type="line"/>
      <point x="711" y="231" type="line"/>
    </contour>
    <contour>
      <point x="355" y="299" type="line"/>
      <point x="378" y="325"/>
      <point x="405" y="394"/>
      <point x="405" y="431" type="qcurve" smooth="yes"/>
      <point x="405" y="646" type="line"/>
      <point x="711" y="646" type="line"/>
      <point x="711" y="431" type="line" smooth="yes"/>
      <point x="711" y="393"/>
      <point x="737" y="325"/>
      <point x="761" y="299" type="qcurve"/>
    </contour>
    <contour>
      <point x="1044" y="431" type="line" smooth="yes"/>
      <point x="1044" y="404"/>
      <point x="1023" y="356"/>
      <point x="987" y="320"/>
      <point x="938" y="299"/>
      <point x="911" y="299" type="qcurve" smooth="yes"/>
      <point x="884" y="299"/>
      <point x="836" y="320"/>
      <point x="800" y="356"/>
      <point x="779" y="404"/>
      <point x="779" y="431" type="qcurve" smooth="yes"/>
      <point x="779" y="646" type="line"/>
      <point x="1044" y="646" type="line"/>
    </contour>
  </outline>
</glyph>
<glyph name="circumflex" format="2">
  <advance width="1112"/>
  <unicode hex="02C6"/>
  <outline>
    <contour>
      <point x="332" y="986" type="line"/>
      <point x="762" y="986" type="line"/>
      <point x="894" y="763" type="line"/>
      <point x="584" y="763" type="line"/>
      <point x="542" y="821" type="line"/>
      <point x="502" y="763" type="line"/>
      <point x="195" y="763" type="line"/>
    </contour>
    <contour>
      <point x="479" y="793" type="line"/>
      <point x="539" y="871" type="line"/>
      <point x="602" y="796" type="line"/>
      <point x="839" y="796" type="line"/>
      <point x="739" y="956" type="line"/>
      <point x="354" y="956" type="line"/>
      <point x="251" y="793" type="line"/>
    </contour>
    <contour>
      <point x="802" y="815" type="line"/>
      <point x="617" y="815" type="line"/>
      <point x="541" y="905" type="line"/>
      <point x="464" y="812" type="line"/>
      <point x="286" y="812" type="line"/>
      <point x="368" y="938" type="line"/>
      <point x="724" y="937" type="line"/>
    </contour>
  </outline>
</glyph>
<glyph name="hungarumlaut" format="2">
  <advance width="1218"/>
  <unicode hex="02DD"/>
  <outline>
    <contour>
      <point x="293" y="952" type="line"/>
      <point x="614" y="952" type="line"/>
      <point x="495" y="724" type="line"/>
      <point x="169" y="724" type="line"/>
    </contour>
    <contour>
      <point x="472" y="754" type="line"/>
      <point x="559" y="919" type="line"/>
      <point x="311" y="919" type="line"/>
      <point x="225" y="754" type="line"/>
    </contour>
    <contour>
      <point x="457" y="773" type="line"/>
      <point x="257" y="773" type="line"/>
      <point x="326" y="900" type="line"/>
      <point x="527" y="900" type="line"/>
    </contour>
    <contour>
      <point x="706" y="952" type="line"/>
      <point x="1027" y="952" type="line"/>
      <point x="908" y="724" type="line"/>
      <point x="582" y="724" type="line"/>
    </contour>
    <contour>
      <point x="885" y="754" type="line"/>
      <point x="972" y="919" type="line"/>
      <point x="724" y="919" type="line"/>
      <point x="638" y="754" type="line"/>
    </contour>
    <contour>
      <point x="870" y="773" type="line"/>
      <point x="670" y="773" type="line"/>
      <point x="739" y="900" type="line"/>
      <point x="940" y="900" type="line"/>
    </contour>
  </outline>
</glyph>
<glyph name="gravecomb" format="2">
  <advance width="1186"/>
  <unicode hex="0300"/>
  <outline>
    <contour>
      <point x="785" y="724" type="line"/>
      <point x="457" y="724" type="line"/>
      <point x="332" y="932" type="line"/>
      <point x="654" y="932" type="line"/>
    </contour>
    <contour>
      <point x="729" y="754" type="line"/>
      <point x="636" y="899" type="line"/>
      <point x="387" y="899" type="line"/>
      <point x="480" y="754" type="line"/>
    </contour>
    <contour>
      <point x="426" y="880" type="line"/>
      <point x="621" y="880" type="line"/>
      <point x="691" y="773" type="line"/>
      <point x="493" y="773" type="line"/>
    </contour>
  </outline>
</glyph>
<glyph name="acutecomb" format="2">
  <advance width="1157"/>
  <unicode hex="0301"/>
  <outline>
    <contour>
      <point x="463" y="932" type="line"/>
      <point x="785" y="932" type="line"/>
      <point x="660" y="724" type="line"/>
      <point x="332" y="724" type="line"/>
    </contour>
    <contour>
      <point x="637" y="754" type="line"/>
      <point x="730" y="899" type="line"/>
      <point x="481" y="899" type="line"/>
      <point x="388" y="754" type="line"/>
    </contour>
    <contour>
      <point x="624" y="773" type="line"/>
      <point x="426" y="773" type="line"/>
      <point x="496" y="880" type="line"/>
      <point x="691" y="880" type="line"/>
    </contour>
  </outline>
</glyph>
<glyph name="uni0302" format="2">
  <advance width="1068"/>
  <unicode hex="0302"/>
  <outline>
    <contour>
      <point x="320" y="986" type="line"/>
      <point x="750" y="986" type="line"/>
      <point x="882" y="763" type="line"/>
      <point x="572" y="763" type="line"/>
      <point x="530" y="821" type="line"/>
      <point x="490" y="763" type="line"/>
      <point x="183" y="763" type="line"/>
    </contour>
    <contour>
      <point x="467" y="793" type="line"/>
      <point x="527" y="871" type="line"/>
      <point x="590" y="796" type="line"/>
      <point x="827" y="796" type="line"/>
      <point x="727" y="956" type="line"/>
      <point x="342" y="956" type="line"/>
      <point x="239" y="793" type="line"/>
    </contour>
    <contour>
      <point x="790" y="815" type="line"/>
      <point x="605" y="815" type="line"/>
      <point x="529" y="905" type="line"/>
      <point x="452" y="812" type="line"/>
      <point x="274" y="812" type="line"/>
      <point x="356" y="938" type="line"/>
      <point x="712" y="937" type="line"/>
    </contour>
  </outline>
</glyph>
<glyph name="uni0307" format="2">
  <advance width="791"/>
  <unicode hex="0307"/>
  <outline>
    <contour>
      <point x="449" y="734" type="qcurve"/>
      <point x="426" y="725"/>
      <point x="403" y="725" type="qcurve" smooth="yes"/>
      <point x="390" y="725" type="line" smooth="yes"/>
      <point x="365" y="725"/>
      <point x="344" y="734" type="qcurve" smooth="yes"/>
      <point x="313" y="748"/>
      <point x="272" y="808"/>
      <point x="272" y="846" type="qcurve" smooth="yes"/>
      <point x="272" y="871"/>
      <point x="291" y="916"/>
      <point x="323" y="949"/>
      <point x="366" y="968"/>
      <point x="390" y="968" type="qcurve" smooth="yes"/>
      <point x="403" y="968" type="line" smooth="yes"/>
      <point x="427" y="968"/>
      <point x="470" y="949"/>
      <point x="501" y="916"/>
      <point x="520" y="871"/>
      <point x="520" y="846" type="qcurve" smooth="yes"/>
      <point x="520" y="808"/>
      <point x="480" y="748"/>
    </contour>
    <contour>
      <point x="302" y="847" type="qcurve" smooth="yes"/>
      <point x="302" y="809"/>
      <point x="353" y="758"/>
      <point x="389" y="758" type="qcurve" smooth="yes"/>
      <point x="401" y="758" type="line" smooth="yes"/>
      <point x="437" y="758"/>
      <point x="487" y="809"/>
      <point x="487" y="847" type="qcurve" smooth="yes"/>
      <point x="487" y="885"/>
      <point x="437" y="937"/>
      <point x="401" y="937" type="qcurve" smooth="yes"/>
      <point x="389" y="937" type="line" smooth="yes"/>
      <point x="371" y="937"/>
      <point x="339" y="923"/>
      <point x="316" y="899"/>
      <point x="302" y="866"/>
    </contour>
    <contour>
      <point x="388" y="780" type="line" smooth="yes"/>
      <point x="375" y="780"/>
      <point x="351" y="792"/>
      <point x="333" y="810"/>
      <point x="323" y="835"/>
      <point x="323" y="849" type="qcurve" smooth="yes"/>
      <point x="323" y="864"/>
      <point x="333" y="890"/>
      <point x="351" y="907"/>
      <point x="375" y="918"/>
      <point x="388" y="918" type="qcurve" smooth="yes"/>
      <point x="403" y="918" type="line" smooth="yes"/>
      <point x="416" y="918"/>
      <point x="440" y="907"/>
      <point x="458" y="890"/>
      <point x="468" y="864"/>
      <point x="468" y="849" type="qcurve" smooth="yes"/>
      <point x="468" y="835"/>
      <point x="457" y="810"/>
      <point x="439" y="792"/>
      <point x="416" y="780"/>
      <point x="403" y="780" type="qcurve" smooth="yes"/>
    </contour>
  </outline>
</glyph>
<glyph name="uni030C" format="2">
  <advance width="1130"/>
  <unicode hex="030C"/>
  <outline>
    <contour>
      <point x="183" y="986" type="line"/>
      <point x="490" y="986" type="line"/>
      <point x="530" y="928" type="line"/>
      <point x="572" y="986" type="line"/>
      <point x="882" y="986" type="line"/>
      <point x="750" y="763" type="line"/>
      <point x="320" y="763" type="line"/>
    </contour>
    <contour>
      <point x="239" y="956" type="line"/>
      <point x="342" y="793" type="line"/>
      <point x="727" y="793" type="line"/>
      <point x="827" y="953" type="line"/>
      <point x="590" y="953" type="line"/>
      <point x="527" y="878" type="line"/>
      <point x="467" y="956" type="line"/>
    </contour>
    <contour>
      <point x="712" y="812" type="line"/>
      <point x="356" y="811" type="line"/>
      <point x="274" y="937" type="line"/>
      <point x="452" y="937" type="line"/>
      <point x="529" y="844" type="line"/>
      <point x="605" y="934" type="line"/>
      <point x="790" y="934" type="line"/>
    </contour>
  </outline>
</glyph>
<glyph name="uni0326" format="2">
  <advance width="510"/>
  <unicode hex="0326"/>
  <outline>
    <contour>
      <point x="342" y="223" type="line"/>
      <point x="193" y="123" type="line"/>
      <point x="193" y="332" type="line"/>
      <point x="342" y="332" type="line"/>
    </contour>
    <contour>
      <point x="361" y="214" type="line"/>
      <point x="361" y="351" type="line"/>
      <point x="174" y="351" type="line"/>
      <point x="174" y="86" type="line"/>
    </contour>
    <contour>
      <point x="391" y="188" type="line"/>
      <point x="144" y="25" type="line"/>
      <point x="144" y="381" type="line"/>
      <point x="391" y="381" type="line"/>
    </contour>
  </outline>
</glyph>
<glyph name="quoteleft" format="2">
  <advance width="310"/>
  <unicode hex="2018"/>
  <outline>
    <contour>
      <point x="13" y="448" type="qcurve"/>
      <point x="11" y="476"/>
      <point x="23" y="514" type="qcurve" smooth="yes"/>
      <point x="33" y="546"/>
      <point x="83" y="637"/>
      <point x="134" y="695" type="qcurve"/>
      <point x="278" y="695" type="line"/>
      <point x="255" y="540" type="line"/>
      <point x="266" y="529"/>
      <point x="275" y="516" type="qcurve" smooth="yes"/>
      <point x="283" y="504"/>
      <point x="295" y="471"/>
      <point x="296" y="448" type="qcurve"/>
      <point x="296" y="446" type="line"/>
      <point x="296" y="423"/>
      <point x="281" y="376"/>
      <point x="261" y="358" type="qcurve"/>
      <point x="241" y="338"/>
      <point x="184" y="319"/>
      <point x="155" y="319" type="qcurve" smooth="yes"/>
      <point x="96" y="319"/>
      <point x="54" y="358" type="qcurve" smooth="yes"/>
      <point x="15" y="396"/>
    </contour>
    <contour>
      <point x="142" y="671" type="line"/>
      <point x="112" y="633"/>
      <point x="89" y="594" type="qcurve" smooth="yes"/>
      <point x="69" y="561"/>
      <point x="36" y="483"/>
      <point x="37" y="448" type="qcurve" smooth="yes"/>
      <point x="38" y="426"/>
      <point x="58" y="387"/>
      <point x="89" y="359"/>
      <point x="131" y="342"/>
      <point x="155" y="342" type="qcurve" smooth="yes"/>
      <point x="193" y="342"/>
      <point x="251" y="376"/>
      <point x="278" y="429"/>
      <point x="267" y="494"/>
      <point x="237" y="526" type="qcurve" smooth="yes"/>
      <point x="234" y="529"/>
      <point x="228" y="532" type="qcurve"/>
      <point x="250" y="671" type="line"/>
    </contour>
    <contour>
      <point x="206" y="520" type="line"/>
      <point x="218" y="509" type="line"/>
      <point x="217" y="509" type="line"/>
      <point x="234" y="492"/>
      <point x="246" y="458"/>
      <point x="246" y="442" type="qcurve" smooth="yes"/>
      <point x="246" y="409"/>
      <point x="195" y="362"/>
      <point x="154" y="362" type="qcurve" smooth="yes"/>
      <point x="136" y="362"/>
      <point x="104" y="375"/>
      <point x="79" y="398"/>
      <point x="63" y="429"/>
      <point x="62" y="447" type="qcurve"/>
      <point x="62" y="473"/>
      <point x="85" y="537"/>
      <point x="116" y="597"/>
      <point x="146" y="644"/>
      <point x="153" y="653" type="qcurve"/>
      <point x="226" y="653" type="line"/>
    </contour>
  </outline>
</glyph>
<glyph name="quoteright" format="2">
  <advance width="307"/>
  <unicode hex="2019"/>
  <outline>
    <contour>
      <point x="295" y="566" type="qcurve" smooth="yes"/>
      <point x="296" y="537"/>
      <point x="285" y="500" type="qcurve"/>
      <point x="274" y="468"/>
      <point x="225" y="377"/>
      <point x="174" y="319" type="qcurve"/>
      <point x="30" y="319" type="line"/>
      <point x="53" y="474" type="line"/>
      <point x="42" y="483"/>
      <point x="33" y="497" type="qcurve" smooth="yes"/>
      <point x="25" y="508"/>
      <point x="13" y="543"/>
      <point x="12" y="566" type="qcurve"/>
      <point x="12" y="568" type="line"/>
      <point x="12" y="591"/>
      <point x="27" y="638"/>
      <point x="47" y="656" type="qcurve"/>
      <point x="67" y="676"/>
      <point x="124" y="695"/>
      <point x="153" y="695" type="qcurve" smooth="yes"/>
      <point x="212" y="695"/>
      <point x="254" y="656" type="qcurve" smooth="yes"/>
      <point x="293" y="618"/>
    </contour>
    <contour>
      <point x="166" y="343" type="line"/>
      <point x="195" y="381"/>
      <point x="219" y="420" type="qcurve" smooth="yes"/>
      <point x="239" y="453"/>
      <point x="272" y="531"/>
      <point x="271" y="566" type="qcurve" smooth="yes"/>
      <point x="270" y="588"/>
      <point x="250" y="627"/>
      <point x="219" y="655"/>
      <point x="177" y="672"/>
      <point x="153" y="672" type="qcurve" smooth="yes"/>
      <point x="115" y="672"/>
      <point x="57" y="638"/>
      <point x="30" y="585"/>
      <point x="41" y="519"/>
      <point x="71" y="488" type="qcurve" smooth="yes"/>
      <point x="74" y="485"/>
      <point x="80" y="482" type="qcurve"/>
      <point x="58" y="343" type="line"/>
    </contour>
    <contour>
      <point x="102" y="494" type="line"/>
      <point x="90" y="505" type="line"/>
      <point x="91" y="505" type="line"/>
      <point x="74" y="522"/>
      <point x="62" y="556"/>
      <point x="62" y="572" type="qcurve" smooth="yes"/>
      <point x="62" y="605"/>
      <point x="113" y="652"/>
      <point x="154" y="652" type="qcurve" smooth="yes"/>
      <point x="172" y="652"/>
      <point x="204" y="639"/>
      <point x="229" y="616"/>
      <point x="245" y="585"/>
      <point x="246" y="567" type="qcurve"/>
      <point x="246" y="541"/>
      <point x="223" y="477"/>
      <point x="192" y="417"/>
      <point x="162" y="370"/>
      <point x="155" y="361" type="qcurve"/>
      <point x="82" y="361" type="line"/>
    </contour>
  </outline>
</glyph>
<glyph name="quotesinglbase" format="2">
  <advance width="320"/>
  <unicode hex="201A"/>
  <outline>
    <contour>
      <point x="299" y="100" type="qcurve" smooth="yes"/>
      <point x="300" y="71"/>
      <point x="289" y="34" type="qcurve"/>
      <point x="278" y="2"/>
      <point x="229" y="-89"/>
      <point x="178" y="-147" type="qcurve"/>
      <point x="34" y="-147" type="line"/>
      <point x="57" y="8" type="line"/>
      <point x="46" y="17"/>
      <point x="37" y="31" type="qcurve" smooth="yes"/>
      <point x="29" y="42"/>
      <point x="17" y="77"/>
      <point x="16" y="100" type="qcurve"/>
      <point x="16" y="102" type="line"/>
      <point x="16" y="125"/>
      <point x="31" y="172"/>
      <point x="51" y="190" type="qcurve"/>
      <point x="71" y="210"/>
      <point x="128" y="229"/>
      <point x="157" y="229" type="qcurve" smooth="yes"/>
      <point x="216" y="229"/>
      <point x="258" y="190" type="qcurve" smooth="yes"/>
      <point x="297" y="152"/>
    </contour>
    <contour>
      <point x="170" y="-123" type="line"/>
      <point x="199" y="-85"/>
      <point x="223" y="-46" type="qcurve" smooth="yes"/>
      <point x="243" y="-13"/>
      <point x="276" y="65"/>
      <point x="275" y="100" type="qcurve" smooth="yes"/>
      <point x="274" y="122"/>
      <point x="254" y="161"/>
      <point x="223" y="189"/>
      <point x="181" y="206"/>
      <point x="157" y="206" type="qcurve" smooth="yes"/>
      <point x="119" y="206"/>
      <point x="61" y="172"/>
      <point x="34" y="119"/>
      <point x="45" y="53"/>
      <point x="75" y="22" type="qcurve" smooth="yes"/>
      <point x="78" y="19"/>
      <point x="84" y="16" type="qcurve"/>
      <point x="62" y="-123" type="line"/>
    </contour>
    <contour>
      <point x="106" y="28" type="line"/>
      <point x="94" y="39" type="line"/>
      <point x="95" y="39" type="line"/>
      <point x="78" y="56"/>
      <point x="66" y="90"/>
      <point x="66" y="106" type="qcurve" smooth="yes"/>
      <point x="66" y="139"/>
      <point x="117" y="186"/>
      <point x="158" y="186" type="qcurve" smooth="yes"/>
      <point x="176" y="186"/>
      <point x="208" y="173"/>
      <point x="233" y="150"/>
      <point x="249" y="119"/>
      <point x="250" y="101" type="qcurve"/>
      <point x="250" y="75"/>
      <point x="227" y="11"/>
      <point x="196" y="-49"/>
      <point x="166" y="-96"/>
      <point x="159" y="-105" type="qcurve"/>
      <point x="86" y="-105" type="line"/>
    </contour>
  </outline>
</glyph>
<glyph name="quotedblleft" format="2">
  <advance width="578"/>
  <unicode hex="201C"/>
  <outline>
    <contour>
      <point x="313" y="448" type="qcurve"/>
      <point x="311" y="476"/>
      <point x="323" y="514" type="qcurve" smooth="yes"/>
      <point x="333" y="546"/>
      <point x="383" y="637"/>
      <point x="434" y="695" type="qcurve"/>
      <point x="578" y="695" type="line"/>
      <point x="555" y="540" type="line"/>
      <point x="566" y="529"/>
      <point x="575" y="516" type="qcurve" smooth="yes"/>
      <point x="583" y="504"/>
      <point x="595" y="471"/>
      <point x="596" y="448" type="qcurve"/>
      <point x="596" y="446" type="line"/>
      <point x="596" y="423"/>
      <point x="581" y="376"/>
      <point x="561" y="358" type="qcurve"/>
      <point x="541" y="338"/>
      <point x="484" y="319"/>
      <point x="455" y="319" type="qcurve" smooth="yes"/>
      <point x="396" y="319"/>
      <point x="354" y="358" type="qcurve" smooth="yes"/>
      <point x="315" y="396"/>
    </contour>
    <contour>
      <point x="442" y="671" type="line"/>
      <point x="412" y="633"/>
      <point x="389" y="594" type="qcurve" smooth="yes"/>
      <point x="369" y="561"/>
      <point x="336" y="483"/>
      <point x="337" y="448" type="qcurve" smooth="yes"/>
      <point x="338" y="426"/>
      <point x="358" y="387"/>
      <point x="389" y="359"/>
      <point x="431" y="342"/>
      <point x="455" y="342" type="qcurve" smooth="yes"/>
      <point x="493" y="342"/>
      <point x="551" y="376"/>
      <point x="578" y="429"/>
      <point x="567" y="494"/>
      <point x="537" y="526" type="qcurve" smooth="yes"/>
      <point x="534" y="529"/>
      <point x="528" y="532" type="qcurve"/>
      <point x="550" y="671" type="line"/>
    </contour>
    <contour>
      <point x="506" y="520" type="line"/>
      <point x="518" y="509" type="line"/>
      <point x="517" y="509" type="line"/>
      <point x="534" y="492"/>
      <point x="546" y="458"/>
      <point x="546" y="442" type="qcurve" smooth="yes"/>
      <point x="546" y="409"/>
      <point x="495" y="362"/>
      <point x="454" y="362" type="qcurve" smooth="yes"/>
      <point x="436" y="362"/>
      <point x="404" y="375"/>
      <point x="379" y="398"/>
      <point x="363" y="429"/>
      <point x="362" y="447" type="qcurve"/>
      <point x="362" y="473"/>
      <point x="385" y="537"/>
      <point x="416" y="597"/>
      <point x="446" y="644"/>
      <point x="453" y="653" type="qcurve"/>
      <point x="526" y="653" type="line"/>
    </contour>
    <contour>
      <point x="9" y="448" type="qcurve"/>
      <point x="7" y="476"/>
      <point x="19" y="514" type="qcurve" smooth="yes"/>
      <point x="29" y="546"/>
      <point x="79" y="637"/>
      <point x="130" y="695" type="qcurve"/>
      <point x="274" y="695" type="line"/>
      <point x="251" y="540" type="line"/>
      <point x="262" y="529"/>
      <point x="271" y="516" type="qcurve" smooth="yes"/>
      <point x="279" y="504"/>
      <point x="291" y="471"/>
      <point x="292" y="448" type="qcurve"/>
      <point x="292" y="446" type="line"/>
      <point x="292" y="423"/>
      <point x="277" y="376"/>
      <point x="257" y="358" type="qcurve"/>
      <point x="237" y="338"/>
      <point x="180" y="319"/>
      <point x="151" y="319" type="qcurve" smooth="yes"/>
      <point x="92" y="319"/>
      <point x="50" y="358" type="qcurve" smooth="yes"/>
      <point x="11" y="396"/>
    </contour>
    <contour>
      <point x="138" y="671" type="line"/>
      <point x="108" y="633"/>
      <point x="85" y="594" type="qcurve" smooth="yes"/>
      <point x="65" y="561"/>
      <point x="32" y="483"/>
      <point x="33" y="448" type="qcurve" smooth="yes"/>
      <point x="34" y="426"/>
      <point x="54" y="387"/>
      <point x="85" y="359"/>
      <point x="127" y="342"/>
      <point x="151" y="342" type="qcurve" smooth="yes"/>
      <point x="189" y="342"/>
      <point x="247" y="376"/>
      <point x="274" y="429"/>
      <point x="263" y="494"/>
      <point x="233" y="526" type="qcurve" smooth="yes"/>
      <point x="230" y="529"/>
      <point x="224" y="532" type="qcurve"/>
      <point x="246" y="671" type="line"/>
    </contour>
    <contour>
      <point x="202" y="520" type="line"/>
      <point x="214" y="509" type="line"/>
      <point x="213" y="509" type="line"/>
      <point x="230" y="492"/>
      <point x="242" y="458"/>
      <point x="242" y="442" type="qcurve" smooth="yes"/>
      <point x="242" y="409"/>
      <point x="191" y="362"/>
      <point x="150" y="362" type="qcurve" smooth="yes"/>
      <point x="132" y="362"/>
      <point x="100" y="375"/>
      <point x="75" y="398"/>
      <point x="59" y="429"/>
      <point x="58" y="447" type="qcurve"/>
      <point x="58" y="473"/>
      <point x="81" y="537"/>
      <point x="112" y="597"/>
      <point x="142" y="644"/>
      <point x="149" y="653" type="qcurve"/>
      <point x="222" y="653" type="line"/>
    </contour>
  </outline>
</glyph>
<glyph name="quotedblright" format="2">
  <advance width="626"/>
  <unicode hex="201D"/>
  <outline>
    <contour>
      <point x="301" y="566" type="qcurve" smooth="yes"/>
      <point x="302" y="537"/>
      <point x="291" y="500" type="qcurve"/>
      <point x="280" y="468"/>
      <point x="231" y="377"/>
      <point x="180" y="319" type="qcurve"/>
      <point x="36" y="319" type="line"/>
      <point x="59" y="474" type="line"/>
      <point x="48" y="483"/>
      <point x="39" y="497" type="qcurve" smooth="yes"/>
      <point x="31" y="508"/>
      <point x="19" y="543"/>
      <point x="18" y="566" type="qcurve"/>
      <point x="18" y="568" type="line"/>
      <point x="18" y="591"/>
      <point x="33" y="638"/>
      <point x="53" y="656" type="qcurve"/>
      <point x="73" y="676"/>
      <point x="130" y="695"/>
      <point x="159" y="695" type="qcurve" smooth="yes"/>
      <point x="218" y="695"/>
      <point x="260" y="656" type="qcurve" smooth="yes"/>
      <point x="299" y="618"/>
    </contour>
    <contour>
      <point x="172" y="343" type="line"/>
      <point x="201" y="381"/>
      <point x="225" y="420" type="qcurve" smooth="yes"/>
      <point x="245" y="453"/>
      <point x="278" y="531"/>
      <point x="277" y="566" type="qcurve" smooth="yes"/>
      <point x="276" y="588"/>
      <point x="256" y="627"/>
      <point x="225" y="655"/>
      <point x="183" y="672"/>
      <point x="159" y="672" type="qcurve" smooth="yes"/>
      <point x="121" y="672"/>
      <point x="63" y="638"/>
      <point x="36" y="585"/>
      <point x="47" y="519"/>
      <point x="77" y="488" type="qcurve" smooth="yes"/>
      <point x="80" y="485"/>
      <point x="86" y="482" type="qcurve"/>
      <point x="64" y="343" type="line"/>
    </contour>
    <contour>
      <point x="108" y="494" type="line"/>
      <point x="96" y="505" type="line"/>
      <point x="97" y="505" type="line"/>
      <point x="80" y="522"/>
      <point x="68" y="556"/>
      <point x="68" y="572" type="qcurve" smooth="yes"/>
      <point x="68" y="605"/>
      <point x="119" y="652"/>
      <point x="160" y="652" type="qcurve" smooth="yes"/>
      <point x="178" y="652"/>
      <point x="210" y="639"/>
      <point x="235" y="616"/>
      <point x="251" y="585"/>
      <point x="252" y="567" type="qcurve"/>
      <point x="252" y="541"/>
      <point x="229" y="477"/>
      <point x="198" y="417"/>
      <point x="168" y="370"/>
      <point x="161" y="361" type="qcurve"/>
      <point x="88" y="361" type="line"/>
    </contour>
    <contour>
      <point x="605" y="566" type="qcurve" smooth="yes"/>
      <point x="606" y="537"/>
      <point x="595" y="500" type="qcurve"/>
      <point x="584" y="468"/>
      <point x="535" y="377"/>
      <point x="484" y="319" type="qcurve"/>
      <point x="340" y="319" type="line"/>
      <point x="363" y="474" type="line"/>
      <point x="352" y="483"/>
      <point x="343" y="497" type="qcurve" smooth="yes"/>
      <point x="335" y="508"/>
      <point x="323" y="543"/>
      <point x="322" y="566" type="qcurve"/>
      <point x="322" y="568" type="line"/>
      <point x="322" y="591"/>
      <point x="337" y="638"/>
      <point x="357" y="656" type="qcurve"/>
      <point x="377" y="676"/>
      <point x="434" y="695"/>
      <point x="463" y="695" type="qcurve" smooth="yes"/>
      <point x="522" y="695"/>
      <point x="564" y="656" type="qcurve" smooth="yes"/>
      <point x="603" y="618"/>
    </contour>
    <contour>
      <point x="476" y="343" type="line"/>
      <point x="505" y="381"/>
      <point x="529" y="420" type="qcurve" smooth="yes"/>
      <point x="549" y="453"/>
      <point x="582" y="531"/>
      <point x="581" y="566" type="qcurve" smooth="yes"/>
      <point x="580" y="588"/>
      <point x="560" y="627"/>
      <point x="529" y="655"/>
      <point x="487" y="672"/>
      <point x="463" y="672" type="qcurve" smooth="yes"/>
      <point x="425" y="672"/>
      <point x="367" y="638"/>
      <point x="340" y="585"/>
      <point x="351" y="519"/>
      <point x="381" y="488" type="qcurve" smooth="yes"/>
      <point x="384" y="485"/>
      <point x="390" y="482" type="qcurve"/>
      <point x="368" y="343" type="line"/>
    </contour>
    <contour>
      <point x="412" y="494" type="line"/>
      <point x="400" y="505" type="line"/>
      <point x="401" y="505" type="line"/>
      <point x="384" y="522"/>
      <point x="372" y="556"/>
      <point x="372" y="572" type="qcurve" smooth="yes"/>
      <point x="372" y="605"/>
      <point x="423" y="652"/>
      <point x="464" y="652" type="qcurve" smooth="yes"/>
      <point x="482" y="652"/>
      <point x="514" y="639"/>
      <point x="539" y="616"/>
      <point x="555" y="585"/>
      <point x="556" y="567" type="qcurve"/>
      <point x="556" y="541"/>
      <point x="533" y="477"/>
      <point x="502" y="417"/>
      <point x="472" y="370"/>
      <point x="465" y="361" type="qcurve"/>
      <point x="392" y="361" type="line"/>
    </contour>
  </outline>
</glyph>
<glyph name="quotedblbase" format="2">
  <advance width="620"/>
  <unicode hex="201E"/>
  <outline>
    <contour>
      <point x="299" y="100" type="qcurve" smooth="yes"/>
      <point x="300" y="71"/>
      <point x="289" y="34" type="qcurve"/>
      <point x="278" y="2"/>
      <point x="229" y="-89"/>
      <point x="178" y="-147" type="qcurve"/>
      <point x="34" y="-147" type="line"/>
      <point x="57" y="8" type="line"/>
      <point x="46" y="17"/>
      <point x="37" y="31" type="qcurve" smooth="yes"/>
      <point x="29" y="42"/>
      <point x="17" y="77"/>
      <point x="16" y="100" type="qcurve"/>
      <point x="16" y="102" type="line"/>
      <point x="16" y="125"/>
      <point x="31" y="172"/>
      <point x="51" y="190" type="qcurve"/>
      <point x="71" y="210"/>
      <point x="128" y="229"/>
      <point x="157" y="229" type="qcurve" smooth="yes"/>
      <point x="216" y="229"/>
      <point x="258" y="190" type="qcurve" smooth="yes"/>
      <point x="297" y="152"/>
    </contour>
    <contour>
      <point x="170" y="-123" type="line"/>
      <point x="199" y="-85"/>
      <point x="223" y="-46" type="qcurve" smooth="yes"/>
      <point x="243" y="-13"/>
      <point x="276" y="65"/>
      <point x="275" y="100" type="qcurve" smooth="yes"/>
      <point x="274" y="122"/>
      <point x="254" y="161"/>
      <point x="223" y="189"/>
      <point x="181" y="206"/>
      <point x="157" y="206" type="qcurve" smooth="yes"/>
      <point x="119" y="206"/>
      <point x="61" y="172"/>
      <point x="34" y="119"/>
      <point x="45" y="53"/>
      <point x="75" y="22" type="qcurve" smooth="yes"/>
      <point x="78" y="19"/>
      <point x="84" y="16" type="qcurve"/>
      <point x="62" y="-123" type="line"/>
    </contour>
    <contour>
      <point x="106" y="28" type="line"/>
      <point x="94" y="39" type="line"/>
      <point x="95" y="39" type="line"/>
      <point x="78" y="56"/>
      <point x="66" y="90"/>
      <point x="66" y="106" type="qcurve" smooth="yes"/>
      <point x="66" y="139"/>
      <point x="117" y="186"/>
      <point x="158" y="186" type="qcurve" smooth="yes"/>
      <point x="176" y="186"/>
      <point x="208" y="173"/>
      <point x="233" y="150"/>
      <point x="249" y="119"/>
      <point x="250" y="101" type="qcurve"/>
      <point x="250" y="75"/>
      <point x="227" y="11"/>
      <point x="196" y="-49"/>
      <point x="166" y="-96"/>
      <point x="159" y="-105" type="qcurve"/>
      <point x="86" y="-105" type="line"/>
    </contour>
    <contour>
      <point x="603" y="100" type="qcurve" smooth="yes"/>
      <point x="604" y="71"/>
      <point x="593" y="34" type="qcurve"/>
      <point x="582" y="2"/>
      <point x="533" y="-89"/>
      <point x="482" y="-147" type="qcurve"/>
      <point x="338" y="-147" type="line"/>
      <point x="361" y="8" type="line"/>
      <point x="350" y="17"/>
      <point x="341" y="31" type="qcurve" smooth="yes"/>
      <point x="333" y="42"/>
      <point x="321" y="77"/>
      <point x="320" y="100" type="qcurve"/>
      <point x="320" y="102" type="line"/>
      <point x="320" y="125"/>
      <point x="335" y="172"/>
      <point x="355" y="190" type="qcurve"/>
      <point x="375" y="210"/>
      <point x="432" y="229"/>
      <point x="461" y="229" type="qcurve" smooth="yes"/>
      <point x="520" y="229"/>
      <point x="562" y="190" type="qcurve" smooth="yes"/>
      <point x="601" y="152"/>
    </contour>
    <contour>
      <point x="474" y="-123" type="line"/>
      <point x="503" y="-85"/>
      <point x="527" y="-46" type="qcurve" smooth="yes"/>
      <point x="547" y="-13"/>
      <point x="580" y="65"/>
      <point x="579" y="100" type="qcurve" smooth="yes"/>
      <point x="578" y="122"/>
      <point x="558" y="161"/>
      <point x="527" y="189"/>
      <point x="485" y="206"/>
      <point x="461" y="206" type="qcurve" smooth="yes"/>
      <point x="423" y="206"/>
      <point x="365" y="172"/>
      <point x="338" y="119"/>
      <point x="349" y="53"/>
      <point x="379" y="22" type="qcurve" smooth="yes"/>
      <point x="382" y="19"/>
      <point x="388" y="16" type="qcurve"/>
      <point x="366" y="-123" type="line"/>
    </contour>
    <contour>
      <point x="410" y="28" type="line"/>
      <point x="398" y="39" type="line"/>
      <point x="399" y="39" type="line"/>
      <point x="382" y="56"/>
      <point x="370" y="90"/>
      <point x="370" y="106" type="qcurve" smooth="yes"/>
      <point x="370" y="139"/>
      <point x="421" y="186"/>
      <point x="462" y="186" type="qcurve" smooth="yes"/>
      <point x="480" y="186"/>
      <point x="512" y="173"/>
      <point x="537" y="150"/>
      <point x="553" y="119"/>
      <point x="554" y="101" type="qcurve"/>
      <point x="554" y="75"/>
      <point x="531" y="11"/>
      <point x="500" y="-49"/>
      <point x="470" y="-96"/>
      <point x="463" y="-105" type="qcurve"/>
      <point x="390" y="-105" type="line"/>
    </contour>
  </outline>
</glyph>
<glyph name="Euro" format="2">
  <advance width="1329"/>
  <unicode hex="20AC"/>
  <outline>
    <contour>
      <point x="1075" y="416" type="line"/>
      <point x="1075" y="279" type="line"/>
      <point x="1301" y="279" type="line"/>
      <point x="1287" y="211"/>
      <point x="1222" y="106"/>
      <point x="1130" y="36"/>
      <point x="1019" y="0"/>
      <point x="959" y="0" type="qcurve" smooth="yes"/>
      <point x="502" y="0" type="line" smooth="yes"/>
      <point x="430" y="0"/>
      <point x="304" y="55"/>
      <point x="210" y="149"/>
      <point x="182" y="212" type="qcurve" smooth="yes"/>
      <point x="172" y="235"/>
      <point x="166" y="259" type="qcurve"/>
      <point x="19" y="259" type="line"/>
      <point x="19" y="437" type="line"/>
      <point x="166" y="437" type="line"/>
      <point x="172" y="460"/>
      <point x="182" y="483" type="qcurve" smooth="yes"/>
      <point x="210" y="546"/>
      <point x="304" y="640"/>
      <point x="430" y="695"/>
      <point x="502" y="695" type="qcurve" smooth="yes"/>
      <point x="959" y="695" type="line" smooth="yes"/>
      <point x="1019" y="695"/>
      <point x="1131" y="657"/>
      <point x="1223" y="585"/>
      <point x="1289" y="481"/>
      <point x="1301" y="416" type="qcurve"/>
    </contour>
    <contour>
      <point x="529" y="665" type="line"/>
      <point x="502" y="665" type="line" smooth="yes"/>
      <point x="436" y="665"/>
      <point x="321" y="615"/>
      <point x="235" y="529"/>
      <point x="185" y="414"/>
      <point x="185" y="348" type="qcurve" smooth="yes"/>
      <point x="185" y="282"/>
      <point x="235" y="167"/>
      <point x="321" y="80"/>
      <point x="436" y="30"/>
      <point x="502" y="30" type="qcurve" smooth="yes"/>
      <point x="529" y="30" type="line"/>
    </contour>
    <contour>
      <point x="510" y="49" type="line"/>
      <point x="502" y="49" type="line" smooth="yes"/>
      <point x="440" y="49"/>
      <point x="332" y="96"/>
      <point x="251" y="177"/>
      <point x="204" y="286"/>
      <point x="204" y="348" type="qcurve" smooth="yes"/>
      <point x="204" y="410"/>
      <point x="251" y="518"/>
      <point x="332" y="599"/>
      <point x="440" y="646"/>
      <point x="502" y="646" type="qcurve" smooth="yes"/>
      <point x="510" y="646" type="line"/>
    </contour>
    <contour>
      <point x="559" y="249" type="line"/>
      <point x="559" y="30" type="line"/>
      <point x="959" y="30" type="line" smooth="yes"/>
      <point x="1011" y="30"/>
      <point x="1107" y="62"/>
      <point x="1186" y="120"/>
      <point x="1245" y="200"/>
      <point x="1261" y="249" type="qcurve"/>
    </contour>
    <contour>
      <point x="559" y="665" type="line"/>
      <point x="559" y="446" type="line"/>
      <point x="1261" y="446" type="line"/>
      <point x="1245" y="495"/>
      <point x="1186" y="575"/>
      <point x="1107" y="633"/>
      <point x="1011" y="665"/>
      <point x="959" y="665" type="qcurve" smooth="yes"/>
    </contour>
    <contour>
      <point x="1234" y="230" type="line"/>
      <point x="1216" y="189"/>
      <point x="1160" y="123"/>
      <point x="1089" y="75"/>
      <point x="1005" y="49"/>
      <point x="959" y="49" type="qcurve" smooth="yes"/>
      <point x="578" y="49" type="line"/>
      <point x="578" y="230" type="line"/>
    </contour>
    <contour>
      <point x="959" y="646" type="line" smooth="yes"/>
      <point x="1005" y="646"/>
      <point x="1089" y="620"/>
      <point x="1160" y="572"/>
      <point x="1216" y="505"/>
      <point x="1234" y="465" type="qcurve"/>
      <point x="578" y="465" type="line"/>
      <point x="578" y="646" type="line"/>
    </contour>
    <contour>
      <point x="1051" y="277" type="line"/>
      <point x="1051" y="335" type="line"/>
      <point x="556" y="335" type="line"/>
      <point x="556" y="277" type="line"/>
    </contour>
    <contour>
      <point x="1051" y="362" type="line"/>
      <point x="1051" y="417" type="line"/>
      <point x="556" y="417" type="line"/>
      <point x="556" y="362" type="line"/>
    </contour>
    <contour>
      <point x="164" y="277" type="line"/>
      <point x="164" y="335" type="line"/>
      <point x="37" y="335" type="line"/>
      <point x="37" y="277" type="line"/>
    </contour>
    <contour>
      <point x="164" y="362" type="line"/>
      <point x="164" y="417" type="line"/>
      <point x="37" y="417" type="line"/>
      <point x="37" y="362" type="line"/>
    </contour>
    <contour>
      <point x="1032" y="296" type="line"/>
      <point x="575" y="296" type="line"/>
      <point x="575" y="316" type="line"/>
      <point x="1032" y="316" type="line"/>
    </contour>
    <contour>
      <point x="1032" y="381" type="line"/>
      <point x="575" y="381" type="line"/>
      <point x="575" y="398" type="line"/>
      <point x="1032" y="398" type="line"/>
    </contour>
    <contour>
      <point x="145" y="296" type="line"/>
      <point x="56" y="296" type="line"/>
      <point x="56" y="316" type="line"/>
      <point x="145" y="316" type="line"/>
    </contour>
    <contour>
      <point x="145" y="381" type="line"/>
      <point x="56" y="381" type="line"/>
      <point x="56" y="398" type="line"/>
      <point x="145" y="398" type="line"/>
    </contour>
  </outline>
</glyph>
<glyph name="trademark" format="2">
  <advance width="1075"/>
  <unicode hex="2122"/>
  <outline>
    <contour>
      <point x="1023" y="372" type="line"/>
      <point x="842" y="372" type="line"/>
      <point x="842" y="447" type="line"/>
      <point x="823" y="424"/>
      <point x="782" y="378"/>
      <point x="767" y="359" type="qcurve"/>
      <point x="692" y="447" type="line"/>
      <point x="692" y="372" type="line"/>
      <point x="512" y="372" type="line"/>
      <point x="512" y="695" type="line"/>
      <point x="679" y="695" type="line"/>
      <point x="767" y="591" type="line"/>
      <point x="855" y="695" type="line"/>
      <point x="1023" y="695" type="line"/>
    </contour>
    <contour>
      <point x="486" y="695" type="line"/>
      <point x="486" y="543" type="line"/>
      <point x="353" y="543" type="line"/>
      <point x="353" y="372" type="line"/>
      <point x="156" y="372" type="line"/>
      <point x="156" y="543" type="line"/>
      <point x="24" y="543" type="line"/>
      <point x="24" y="695" type="line"/>
    </contour>
    <contour>
      <point x="456" y="664" type="line"/>
      <point x="54" y="664" type="line"/>
      <point x="54" y="574" type="line"/>
      <point x="456" y="574" type="line"/>
    </contour>
    <contour>
      <point x="752" y="423" type="line"/>
      <point x="752" y="560" type="line"/>
      <point x="665" y="664" type="line"/>
      <point x="541" y="664" type="line"/>
      <point x="541" y="520" type="line"/>
      <point x="670" y="520" type="line"/>
    </contour>
    <contour>
      <point x="785" y="425" type="line"/>
      <point x="864" y="520" type="line"/>
      <point x="992" y="520" type="line"/>
      <point x="992" y="664" type="line"/>
      <point x="869" y="664" type="line"/>
      <point x="785" y="562" type="line"/>
    </contour>
    <contour>
      <point x="323" y="403" type="line"/>
      <point x="323" y="546" type="line"/>
      <point x="186" y="546" type="line"/>
      <point x="186" y="403" type="line"/>
    </contour>
    <contour>
      <point x="72" y="593" type="line"/>
      <point x="438" y="593" type="line"/>
      <point x="438" y="645" type="line"/>
      <point x="72" y="645" type="line"/>
    </contour>
    <contour>
      <point x="734" y="474" type="line"/>
      <point x="734" y="552" type="line"/>
      <point x="656" y="645" type="line"/>
      <point x="560" y="645" type="line"/>
      <point x="560" y="539" type="line"/>
      <point x="679" y="539" type="line"/>
    </contour>
    <contour>
      <point x="803" y="477" type="line"/>
      <point x="855" y="539" type="line"/>
      <point x="974" y="539" type="line"/>
      <point x="974" y="645" type="line"/>
      <point x="878" y="645" type="line"/>
      <point x="859" y="622"/>
      <point x="822" y="579"/>
      <point x="803" y="555" type="qcurve"/>
    </contour>
    <contour>
      <point x="992" y="494" type="line"/>
      <point x="872" y="494" type="line"/>
      <point x="872" y="403" type="line"/>
      <point x="992" y="403" type="line"/>
    </contour>
    <contour>
      <point x="305" y="422" type="line"/>
      <point x="305" y="528" type="line"/>
      <point x="205" y="528" type="line"/>
      <point x="205" y="422" type="line"/>
    </contour>
    <contour>
      <point x="663" y="403" type="line"/>
      <point x="663" y="489" type="line"/>
      <point x="541" y="489" type="line"/>
      <point x="541" y="403" type="line"/>
    </contour>
    <contour>
      <point x="974" y="475" type="line"/>
      <point x="890" y="475" type="line"/>
      <point x="890" y="422" type="line"/>
      <point x="974" y="422" type="line"/>
    </contour>
    <contour>
      <point x="644" y="422" type="line"/>
      <point x="644" y="470" type="line"/>
      <point x="560" y="470" type="line"/>
      <point x="560" y="422" type="line"/>
    </contour>
  </outline>
</glyph>
<glyph name="Germandbls" format="2">
  <advance width="1180"/>
  <outline>
    <contour>
      <point x="977" y="696" type="line"/>
      <point x="1012" y="693"/>
      <point x="1072" y="662"/>
      <point x="1117" y="612"/>
      <point x="1143" y="549"/>
      <point x="1143" y="513" type="qcurve" smooth="yes"/>
      <point x="1143" y="457"/>
      <point x="1082" y="368"/>
      <point x="1034" y="347" type="qcurve"/>
      <point x="1082" y="326"/>
      <point x="1143" y="237"/>
      <point x="1143" y="181" type="qcurve" smooth="yes"/>
      <point x="1143" y="145"/>
      <point x="1117" y="82"/>
      <point x="1072" y="34"/>
      <point x="1012" y="3"/>
      <point x="977" y="0" type="qcurve"/>
      <point x="37" y="0" type="line"/>
      <point x="37" y="182" type="line" smooth="yes"/>
      <point x="37" y="238"/>
      <point x="98" y="327"/>
      <point x="146" y="348" type="qcurve"/>
      <point x="98" y="369"/>
      <point x="37" y="458"/>
      <point x="37" y="514" type="qcurve" smooth="yes"/>
      <point x="37" y="695" type="line"/>
    </contour>
    <contour>
      <point x="67" y="30" type="line"/>
      <point x="491" y="30" type="line"/>
      <point x="512" y="30" type="line"/>
      <point x="512" y="665" type="line"/>
      <point x="67" y="665" type="line"/>
      <point x="67" y="514" type="line" smooth="yes"/>
      <point x="67" y="483"/>
      <point x="91" y="428"/>
      <point x="132" y="387"/>
      <point x="188" y="363"/>
      <point x="219" y="363" type="qcurve" smooth="yes"/>
      <point x="491" y="363" type="line"/>
      <point x="491" y="333" type="line"/>
      <point x="219" y="333" type="line" smooth="yes"/>
      <point x="188" y="333"/>
      <point x="132" y="309"/>
      <point x="91" y="268"/>
      <point x="67" y="213"/>
      <point x="67" y="182" type="qcurve" smooth="yes"/>
    </contour>
    <contour>
      <point x="863" y="30" type="line"/>
      <point x="825" y="54"/>
      <point x="781" y="133"/>
      <point x="781" y="181" type="qcurve" smooth="yes"/>
      <point x="781" y="229"/>
      <point x="825" y="308"/>
      <point x="863" y="332" type="qcurve"/>
      <point x="559" y="332" type="line"/>
      <point x="559" y="362" type="line"/>
      <point x="863" y="362" type="line"/>
      <point x="825" y="387"/>
      <point x="781" y="465"/>
      <point x="781" y="513" type="qcurve" smooth="yes"/>
      <point x="781" y="561"/>
      <point x="825" y="640"/>
      <point x="863" y="665" type="qcurve"/>
      <point x="537" y="665" type="line"/>
      <point x="537" y="30" type="line"/>
    </contour>
    <contour>
      <point x="962" y="362" type="qcurve" smooth="yes"/>
      <point x="993" y="362"/>
      <point x="1049" y="386"/>
      <point x="1089" y="427"/>
      <point x="1113" y="482"/>
      <point x="1113" y="513" type="qcurve" smooth="yes"/>
      <point x="1113" y="544"/>
      <point x="1089" y="600"/>
      <point x="1049" y="641"/>
      <point x="993" y="665"/>
      <point x="962" y="665" type="qcurve" smooth="yes"/>
      <point x="931" y="665"/>
      <point x="876" y="641"/>
      <point x="835" y="600"/>
      <point x="811" y="544"/>
      <point x="811" y="513" type="qcurve" smooth="yes"/>
      <point x="811" y="482"/>
      <point x="835" y="427"/>
      <point x="876" y="386"/>
      <point x="931" y="362"/>
    </contour>
    <contour>
      <point x="1113" y="181" type="qcurve" smooth="yes"/>
      <point x="1113" y="212"/>
      <point x="1089" y="267"/>
      <point x="1049" y="308"/>
      <point x="993" y="332"/>
      <point x="962" y="332" type="qcurve" smooth="yes"/>
      <point x="931" y="332"/>
      <point x="876" y="308"/>
      <point x="835" y="267"/>
      <point x="811" y="212"/>
      <point x="811" y="181" type="qcurve" smooth="yes"/>
      <point x="811" y="149"/>
      <point x="835" y="94"/>
      <point x="876" y="54"/>
      <point x="931" y="30"/>
      <point x="962" y="30" type="qcurve" smooth="yes"/>
      <point x="993" y="30"/>
      <point x="1049" y="54"/>
      <point x="1089" y="94"/>
      <point x="1113" y="149"/>
    </contour>
    <contour>
      <point x="86" y="182" type="line" smooth="yes"/>
      <point x="86" y="209"/>
      <point x="107" y="257"/>
      <point x="143" y="293"/>
      <point x="192" y="314"/>
      <point x="219" y="314" type="qcurve" smooth="yes"/>
      <point x="491" y="314" type="line"/>
      <point x="491" y="49" type="line"/>
      <point x="86" y="49" type="line"/>
    </contour>
    <contour>
      <point x="491" y="646" type="line"/>
      <point x="491" y="382" type="line"/>
      <point x="219" y="382" type="line" smooth="yes"/>
      <point x="192" y="382"/>
      <point x="143" y="403"/>
      <point x="107" y="439"/>
      <point x="86" y="487"/>
      <point x="86" y="514" type="qcurve" smooth="yes"/>
      <point x="86" y="646" type="line"/>
    </contour>
    <contour>
      <point x="813" y="646" type="line"/>
      <point x="762" y="590"/>
      <point x="762" y="513" type="qcurve" smooth="yes"/>
      <point x="762" y="475"/>
      <point x="788" y="408"/>
      <point x="812" y="381" type="qcurve"/>
      <point x="559" y="381" type="line"/>
      <point x="559" y="646" type="line"/>
    </contour>
    <contour>
      <point x="812" y="313" type="line"/>
      <point x="789" y="287"/>
      <point x="762" y="218"/>
      <point x="762" y="181" type="qcurve" smooth="yes"/>
      <point x="762" y="144"/>
      <point x="789" y="75"/>
      <point x="812" y="49" type="qcurve"/>
      <point x="559" y="49" type="line"/>
      <point x="559" y="313" type="line"/>
    </contour>
    <contour>
      <point x="962" y="381" type="qcurve" smooth="yes"/>
      <point x="935" y="381"/>
      <point x="887" y="402"/>
      <point x="851" y="438"/>
      <point x="830" y="486"/>
      <point x="830" y="513" type="qcurve" smooth="yes"/>
      <point x="830" y="540"/>
      <point x="851" y="589"/>
      <point x="887" y="625"/>
      <point x="935" y="646"/>
      <point x="962" y="646" type="qcurve" smooth="yes"/>
      <point x="989" y="646"/>
      <point x="1037" y="625"/>
      <point x="1073" y="589"/>
      <point x="1094" y="540"/>
      <point x="1094" y="513" type="qcurve" smooth="yes"/>
      <point x="1094" y="486"/>
      <point x="1073" y="438"/>
      <point x="1037" y="402"/>
      <point x="989" y="381"/>
    </contour>
    <contour>
      <point x="1094" y="181" type="qcurve" smooth="yes"/>
      <point x="1094" y="154"/>
      <point x="1073" y="106"/>
      <point x="1037" y="70"/>
      <point x="989" y="49"/>
      <point x="962" y="49" type="qcurve" smooth="yes"/>
      <point x="935" y="49"/>
      <point x="887" y="70"/>
      <point x="851" y="106"/>
      <point x="830" y="154"/>
      <point x="830" y="181" type="qcurve" smooth="yes"/>
      <point x="830" y="208"/>
      <point x="851" y="256"/>
      <point x="887" y="292"/>
      <point x="935" y="313"/>
      <point x="962" y="313" type="qcurve" smooth="yes"/>
      <point x="989" y="313"/>
      <point x="1037" y="292"/>
      <point x="1073" y="256"/>
      <point x="1094" y="208"/>
    </contour>
  </outline>
</glyph>
<glyph name="undercommaaccent" format="2">
  <advance width="900"/>
  <outline>
    <contour>
      <point x="516" y="-187" type="line"/>
      <point x="367" y="-287" type="line"/>
      <point x="367" y="-78" type="line"/>
      <point x="516" y="-78" type="line"/>
    </contour>
    <contour>
      <point x="535" y="-196" type="line"/>
      <point x="535" y="-59" type="line"/>
      <point x="348" y="-59" type="line"/>
      <point x="348" y="-324" type="line"/>
    </contour>
    <contour>
      <point x="565" y="-222" type="line"/>
      <point x="318" y="-385" type="line"/>
      <point x="318" y="-29" type="line"/>
      <point x="565" y="-29" type="line"/>
    </contour>
  </outline>
</glyph>
